<?xml version="1.0" encoding="UTF-8"?>
<svg id="Layer_2" xmlns="http://www.w3.org/2000/svg" viewBox="0 0 632 305.23">
  <defs>
    <style>
      .cls-1 {
        fill: #1a134b;
      }
    </style>
  </defs>
  <g id="logo">
    <g>
      <g>
        <path class="cls-1" d="M353.97,286.91h-6.23v16.85h-1.52v-16.85h-6.23v-1.31h13.97v1.31Z"/>
        <path class="cls-1" d="M365.51,298.67h-8.26l-1.87,5.09h-1.6l6.86-18.16h1.46l6.87,18.16h-1.6l-1.87-5.09ZM365.03,297.36l-3.64-9.89-3.64,9.89h7.29Z"/>
        <path class="cls-1" d="M382.18,302.46v1.3h-10.5v-18.16h1.55v16.87h8.96Z"/>
        <path class="cls-1" d="M396.44,302.46v1.3h-11.29v-18.16h11.23v1.31h-9.69v6.84h8.48v1.31h-8.48v7.41h9.76Z"/>
        <path class="cls-1" d="M411.66,303.76l-10.43-15.54v15.54h-1.55v-18.16h1.55l10.44,15.55v-15.55h1.53v18.16h-1.55Z"/>
        <path class="cls-1" d="M430.15,286.91h-6.23v16.85h-1.52v-16.85h-6.23v-1.31h13.97v1.31Z"/>
        <path class="cls-1" d="M448.51,298.67h-8.26l-1.87,5.09h-1.6l6.86-18.16h1.46l6.87,18.16h-1.6l-1.87-5.09ZM448.03,297.36l-3.64-9.89-3.64,9.89h7.29Z"/>
        <path class="cls-1" d="M466.61,302.69c-.52.37-1.21.68-2.08.94s-1.89.39-3.06.39c-1.42,0-2.68-.34-3.79-1.02-1.1-.68-1.96-1.64-2.58-2.9-.62-1.26-.92-2.72-.92-4.38v-2.21c0-1.66.28-3.1.85-4.32.57-1.23,1.38-2.17,2.45-2.84,1.06-.67,2.31-1,3.75-1,1.31,0,2.42.23,3.36.69s1.66,1.09,2.19,1.9c.53.81.86,1.73.99,2.78h-1.53c-.2-1.21-.7-2.18-1.5-2.93-.8-.75-1.97-1.12-3.5-1.12-1.16,0-2.16.28-2.98.85-.82.57-1.45,1.36-1.88,2.38s-.64,2.22-.64,3.59v2.23c0,1.4.24,2.62.71,3.68.47,1.06,1.15,1.87,2.01,2.45.87.58,1.88.87,3.03.87.86,0,1.61-.08,2.26-.25.65-.17,1.19-.37,1.6-.61.41-.24.72-.48.92-.73v-4.69h-4.88v-1.31h6.4v6.46c-.26.37-.65.73-1.17,1.1Z"/>
        <path class="cls-1" d="M483.44,302.46v1.3h-11.29v-18.16h11.23v1.31h-9.69v6.84h8.48v1.31h-8.48v7.41h9.76Z"/>
        <path class="cls-1" d="M498.66,303.76l-10.43-15.54v15.54h-1.55v-18.16h1.55l10.44,15.55v-15.55h1.53v18.16h-1.55Z"/>
        <path class="cls-1" d="M515.69,302.46c-1.14,1.04-2.7,1.55-4.67,1.55-1.36,0-2.56-.34-3.59-1.02-1.03-.68-1.83-1.64-2.4-2.88-.57-1.24-.85-2.67-.85-4.29v-2.27c0-1.63.28-3.06.85-4.3.57-1.23,1.37-2.19,2.42-2.88s2.27-1.02,3.67-1.02c1.28,0,2.39.23,3.33.7.94.47,1.68,1.14,2.23,2.03s.89,1.95,1.01,3.2h-1.53c-.39-3.08-2.07-4.62-5.04-4.62-1.11,0-2.07.29-2.88.85-.82.57-1.44,1.37-1.87,2.4-.43,1.03-.65,2.23-.65,3.61v2.3c0,1.34.21,2.53.62,3.57.42,1.04,1.02,1.86,1.82,2.45.8.59,1.75.88,2.86.88,1.58,0,2.78-.38,3.61-1.14.82-.76,1.33-1.92,1.53-3.47h1.53c-.19,1.87-.86,3.32-2,4.36Z"/>
        <path class="cls-1" d="M532.3,285.6h1.78l-6.56,11.32v6.85h-1.53v-6.85l-6.56-11.32h1.82l5.5,9.91,5.55-9.91Z"/>
      </g>
      <path class="cls-1" d="M88.61,208.36c3.73,5.44,5.59,11.75,5.59,18.9,0,12.45-4,21.97-12,28.56-8,6.59-19.25,9.88-33.75,9.88H0v-131.38h45.12c14.8,0,26.17,2.93,34.11,8.8,7.94,5.87,11.91,14.78,11.91,26.75,0,6.14-1.64,11.61-4.92,16.42-3.28,4.81-7.99,8.48-14.12,11.01,7.28,1.93,12.78,5.61,16.51,11.05ZM23.37,153.18v36.36h21.93c7.16,0,12.71-1.59,16.65-4.78,3.94-3.19,5.91-7.67,5.91-13.44,0-6.38-1.84-10.99-5.5-13.85-3.67-2.86-9.42-4.29-17.23-4.29h-21.75ZM65.1,241.57c3.88-3.58,5.82-8.35,5.82-14.3,0-13.72-7.16-20.57-21.48-20.57h-26.08v40.24h25.09c7.22,0,12.77-1.79,16.65-5.37Z"/>
      <path class="cls-1" d="M397.91,223.93h-63.62c.42,4.99,1.71,9.42,3.88,13.26,2.17,3.85,5.1,6.86,8.8,9.02,3.7,2.17,8.02,3.25,12.95,3.25,10.11,0,18.23-3.97,24.36-11.91l12,11.64c-3.55,5.23-8.48,9.6-14.8,13.08-6.32,3.49-13.96,5.23-22.92,5.23-9.51,0-17.81-2.06-24.9-6.18-7.1-4.12-12.54-9.76-16.33-16.92-3.79-7.16-5.69-15.19-5.69-24.09v-3.7c0-10.05,1.93-18.87,5.78-26.48,3.85-7.61,9.14-13.49,15.88-17.64,6.74-4.15,14.32-6.23,22.74-6.23,9.2,0,16.93,2.02,23.19,6.05,6.26,4.03,10.93,9.67,14.03,16.92,3.1,7.25,4.65,15.66,4.65,25.22v9.47ZM375.72,205.97c-.3-6.32-2.02-11.51-5.14-15.57-3.13-4.06-8-6.09-14.62-6.09-5.9,0-10.65,2.05-14.26,6.14-3.61,4.09-5.93,9.84-6.95,17.23h40.97v-1.71Z"/>
      <path class="cls-1" d="M454.22,166.63c1.59.24,2.78.51,3.56.81l-.18,21.2c-3.01-.48-5.99-.72-8.93-.72-10.05,0-16.78,3.76-20.21,11.28v66.5h-22.47v-97.63h21.39l.63,11.01c2.47-4.09,5.53-7.25,9.2-9.47,3.67-2.22,7.91-3.34,12.72-3.34,1.26,0,2.69.12,4.29.36Z"/>
      <path class="cls-1" d="M491.36,182.51v83.2h-16.24v-83.2h-13.26v-13.44h13.26v-16.6c0-7.28,2.21-12.65,6.63-16.11,4.42-3.46,10.6-5.19,18.54-5.19,2.71,0,5.14.12,7.31.36v14.62c-1.93-.24-4.12-.36-6.59-.36-3.61,0-6.12.89-7.53,2.66-1.41,1.78-2.12,4.65-2.12,8.62v12h16.24v13.44h-16.24Z"/>
      <path class="cls-1" d="M534.56,265.7h-16.24v-132.64h16.24v132.64Z"/>
      <path class="cls-1" d="M614.31,169.06h17.69l-34.56,94.84c-.6,1.68-1.2,3.28-1.8,4.78-5.23,13.96-9.75,23.54-13.54,28.74-3.79,5.2-9.93,7.81-18.41,7.81-4.45,0-8.09-.48-10.92-1.44v-14.8c3.07,1.08,6.44,1.62,10.11,1.62,3.97,0,6.87-1.25,8.71-3.75,1.83-2.5,4.56-8.62,8.17-18.36l-35.91-99.44h18.32l25.9,78.68h.36l25.9-78.68Z"/>
      <g>
        <path class="cls-1" d="M390.25,19.35c-.23-.15-.47-.29-.7-.43-.02.45-.08.98-.04,1.24.08.03.17.06.28.05.29-.03.47-.57.77-.66-.04-.03-.08-.05-.12-.07-.13.11-.26.21-.34.27-.03.02-.2.08-.21,0-.02-.08.18-.25.35-.4Z"/>
        <path class="cls-1" d="M389.08,18.66c-.08-.05-.16-.09-.24-.13.02.05.07.32.15.31.04,0,.07-.08.09-.18Z"/>
        <path class="cls-1" d="M393.54,21.91c-.13-.13-.28-.26-.42-.38-.02.08-.08.12-.15.15.02.15.08.36.07.58l.48-.13c0-.07,0-.14.02-.21Z"/>
        <path class="cls-1" d="M386.39,18.74s-.03,0-.04.01c-.06.06-.1.11-.09.15.02.15.18.19.34.24.08-.06.12-.12.12-.2-.01-.12-.16-.23-.32-.21Z"/>
        <path class="cls-1" d="M398.62,80l-7.91,34.92-22.72-7.45-9.13-22.24,8.97-21.91c-.96-.54-1.94-1.16-2.88-1.77-.91-.6-1.94-1.18-3.12-1.56-.23-.07-.47-.18-.69-.27l-6.36,15.55-23.29-56.91-6.95-1.82s-.05.01-.07.02c-.5.16-1.02.35-1.52.52-.29.1-.59.2-.87.32-.15.07-.3.1-.45.16-.27.11-.48.22-.77.3-.25.07-1.25.73-1.37.1-.06-.29.79-.4.98-.47.58-.21,1.14-.46,1.74-.64.5-.15,1.03-.33,1.55-.53L261.44,0l31.17,72.54h23.52s0,0,0,0h.65l-3.08-7.55h-16.12l-23.1-53.76,51.45,13.49,24.77,60.53-9.13,22.24-22.72,7.45-7.91-34.92h-7.74l10.12,44.68,33.91-11.12,7.55-18.39,7.55,18.39,33.91,11.12,10.12-44.68h-7.74ZM324.42,18.14c-.12.21-.36.28-.59.25-.29-.05-.56-.27-.53-.58.1-.9,1.43-.23,1.12.34ZM338.51,38.12c-.03.65.04,1.53-.13,2.28-.03.13-.15.21-.17.3-.02.09.06.33.04.42-.02.1-.15.24-.21.42-.18.52-.69,1.26-1.48.72-.74-.51-.06-2.08.21-2.7.17-.39.4-.83.63-1.23.17-.29.26-.46.42-.89.11-.29.14-.46.25-.89.05-.18.22-.34.25-.46.07-.24,0-.43.08-.51.12-.1.04.53.04.51,0,.24.13.86.13,1.27,0,.23-.07.5-.08.76ZM342.64,49.15c-.18-.13,0-.33.13-.38.41-.14.22.63-.13.38ZM398.89,88.39c.31-.28.58.22.56.45-.16.02-.52-.31-.56-.45ZM399.81,83.4c-.1.01-.21-.08-.32-.18,0-.34.42-.37.51-.06l-.19.23ZM401.76,88.85c.19-.32.37.02.4.17-.2.09-.25,0-.4-.17Z"/>
        <path class="cls-1" d="M385.55,23.15c.36.03.71.07,1.07.11.06-.25.12-.5.16-.74-.28.09-.55.07-.89.06-.09.19-.21.38-.35.58Z"/>
        <path class="cls-1" d="M375.27,34.65s.01,0,.02,0c-.05-.18-.1-.37-.15-.52-.03.15-.08.3-.17.44.02.05.04.1.07.15.11-.02.2-.05.24-.06Z"/>
        <path class="cls-1" d="M388.67,18.68c-.22-.06-.84.5-1.28.69-.25.11-.39.03-.5.13,0,.12-.03.21-.08.28-.01.09-.04.18-.11.22-.02.01-.05.02-.09.02-.03.04-.04.08-.05.12.15-.09.29-.18.42-.29.09-.07.19-.18.3-.29.35-.48,1.11-.78,1.67-.13.07.08.13.22.2.35.14.06.19.16.18.25.02.01.04.03.05.04,0-.04,0-.08-.02-.13-.02-.09-.48-1.23-.69-1.28Z"/>
        <path class="cls-1" d="M375.71,36.22c.1.11.5.15.63.21.38.17.7.65,1.06.55.05-.01.32-.3.29-.51-.06-.48-1.05-.5-1.52-.76-.24-.13-.56-.42-.72-.63-.03-.05-.06-.12-.1-.21-.08,0-.16,0-.25,0,.15.27.32.54.43.79.06.15.1.47.17.55ZM377.24,36.64c.29.18,0,.47-.21.16.06-.12.14-.1.21-.16ZM376.51,36.01c.21-.1.34.03.38.13.25.7-1.08.2-.38-.13Z"/>
        <path class="cls-1" d="M375.64,33.02c-.08-.11-.17-.23-.21-.37-.11-.38.04-.3-.46-.54-.07-.03-.15-.07-.24-.12-.01.39.07.79.3,1.02.26.25.42.14.6.01Z"/>
        <path class="cls-1" d="M375.4,30.83s-.03-.07-.04-.11c-.14.1-.32.19-.37.26-.09.14-.17.37-.22.63.04.04.08.06.11.07.28.12,1.1-.1,1.16-.32.04-.12-.04-.27-.18-.42-.17.06-.35.08-.47-.12Z"/>
        <path class="cls-1" d="M386.56,23.48c-.44-.02-.88-.03-1.32-.02-.12.04-.23.13-.33.23.26.2.54.39.77.48l.73-.19c.05-.16.1-.33.15-.5Z"/>
        <path class="cls-1" d="M384.63,24.39s.04.02.06.05l.14-.04c-.07-.06-.14-.12-.22-.18-.02.08-.02.16,0,.24h.01s.02-.07,0-.07Z"/>
        <path class="cls-1" d="M366.97,59.8s.06-.02.09,0c-.03-.01-.05-.02-.06-.03,0,0-.01.02-.02.03,0,0,0,0,0,0Z"/>
        <path class="cls-1" d="M395.73,13.95s-.06-.07-.08-.11c0,.03.02.08.03.12.02,0,.03,0,.05,0,0,0,0,0,0-.01Z"/>
        <path class="cls-1" d="M394.63,14.93c.06-.05.13-.1.19-.16-.09-.04-.17-.08-.26-.11.05.13.02.23-.05.32.04-.02.08-.03.13-.05Z"/>
        <path class="cls-1" d="M397.44,13.33c.14.04.34.02.34.02,0,.01-.2.12-.25.15.04,0,.08-.02.15-.05-.16.07-.18.07-.15.05-.09.02-.1-.02-.14-.04-.1.18-.24.25-.33.37.47-.25.92-.52,1.33-.8l-.94.25s0,.03,0,.05Z"/>
        <path class="cls-1" d="M394.47,15.66c-.13.03-.26.05-.38.08-.02.02-.06.02-.09.02-.03,0-.07.01-.1.02,0,.01,0,.04.05.08.06.06.08.09.07.11.16-.09.31-.19.45-.31Z"/>
        <polygon class="cls-1" points="366.96 59.8 366.96 59.81 366.97 59.8 366.96 59.8"/>
        <path class="cls-1" d="M394.97,13.93l-.57.15c.23,0,.44-.03.57-.15Z"/>
        <path class="cls-1" d="M393.71,15.17s.04.05.06.08c0,0,.01,0,.01,0-.03-.03-.05-.06-.06-.1,0,0-.01.01-.02.02Z"/>
        <path class="cls-1" d="M415.55,9.57c.13.37.46.55.81.65.02-.6.41-1,1.18-1.07.02,0,.03,0,.05,0-.12-.11-.24-.21-.4-.26-.46-.14-1.79.24-1.64.68Z"/>
        <path class="cls-1" d="M393.85,14.46s-.07,0-.11-.01c0,.03.03.07.06.1.01-.03.03-.06.05-.09Z"/>
        <path class="cls-1" d="M362.3,59.07c.25.2.38.5.59.72.4.4,1.01.75,1.56,1.14,1.04.75,2.25,1.53,3.45,2.23l7.23-17.67c-.41.31-.91.47-1.32.28-1.51-.69-.08-3.18,1.37-2.64-.06-.21-.12-.42-.18-.62-.21-.73-.22-1.35-.84-1.52-.18-.05-.36,0-.55-.04-.64-.13-1.39-.45-1.86-.51-.34-.04-.72-.04-1.08-.05.12.4-.37.91-.78.7-.26-.13-.34-.46-.26-.72-.19.15-.39.29-.62.39-.03,0-.07,0-.1,0l-2.8,6.83c-.14.44-.28.87-.44,1.29-.13.37-.17.75-.29,1.14-.11.37-.58,1-.55,1.31.06.55.95.52.68,1.31-.03.08-.35.39-.55.46-.23.08-.55-.02-.8.13-.24.14-.44.75-.59,1.06-.35.72-.54,1.17-.89,1.71l-1.01,2.47c.03.09.06.17.09.22.1.16.34.21.55.38ZM374.31,41.62c-.11.33-.37.49-.66.21-.09-.39.52-.71.66-.21ZM372.25,45.95c-.03.09-.03.17-.06.26-.15.15-.33.1-.52-.03-.07-.28.32-.61.57-.23ZM371.62,42.56s.12-.08.17,0c.07.13-.29.12-.17,0ZM371.34,50.72c.17-.32.55-.03.54.2-.11.2-.23.22-.36.25-.18-.14-.21-.29-.18-.45ZM370.98,49.44c.35-.19.35.37.08.38-.23,0-.27-.28-.08-.38ZM369.21,42.98c.15-.16.08.33-.04.17-.03-.04.03-.16.04-.17ZM368.67,59.66c.52-.14.41.66,0,.59-.31-.05-.33-.51,0-.59ZM367.69,49.15c.25-.13.49.04.51.25.05.76-1.14.08-.51-.25ZM367.06,59.62c.27-.01.09.32.04.34,0,0-.1-.09-.14-.15-.05.06-.04.02,0,0-.02-.04-.02-.06.04-.04.04-.06.09-.14.06-.14ZM366.85,59.16c.28-.17.07.39-.08.13-.04-.06.06-.11.08-.13ZM366.39,59.79s-.08.2-.08,0c0,.14.02.38-.13.47.08-.05-.04-.27-.04-.17,0-.12.21-.53.25-.3ZM364.82,57.38c-.55-.16.33-.51,0,0h0ZM364.2,54.4c.18.09.11.22.04.34-.09-.1-.19-.21-.04-.34Z"/>
        <path class="cls-1" d="M393.51,14.73c.08.01.15.04.21.08,0-.02,0-.05.01-.07-.08-.04-.16-.07-.22-.01Z"/>
        <path class="cls-1" d="M376.05,41.75c-.05.18.1.52.27.83l.46-1.13c-.28.05-.68.1-.74.3Z"/>
        <path class="cls-1" d="M404.93,15.06c.02-.08.04-.17.03-.22-.02-.09-.05-.11-.08-.11,0,.11.02.22.04.33Z"/>
        <path class="cls-1" d="M404.88,14.71c.13-.1.08-.21-.01-.36,0,.12,0,.24.01.36Z"/>
        <path class="cls-1" d="M405.17,15.33s-.12,0-.19,0c.07.29.17.59.32.9,0,.02.08-.02.16-.07-.11-.37-.19-.74-.29-.83Z"/>
        <path class="cls-1" d="M402.91,13.88s-.07-.02-.11-.03c-.06.01-.12.02-.17.03.1.11.22.2.32.22.03,0,.06,0,.09,0-.04-.07-.09-.14-.13-.21Z"/>
        <path class="cls-1" d="M436.04,22.2c-.43-1.23.62-2.54,1.86-2.56.57,0,1.1.28,1.48.69l8.74-20.34-21.72,5.69c.07.05.12.12.14.19,0,.04,0,.07,0,.1-.02.35-.59.34-.84.35-.22.22-.2.37-.34.49-.38.31-1.09-.09-1.29-.52l-6.31,1.65c.14.11.29.22.44.3.42.22,1.29.36,1.16,1.03-.05.29-.35.5-.66.55,0,.01,0,.02.01.03.11.42,0,.76-.2,1.01.45.15.98.09,1.36.4.12.1.23-.33.29-.59-.38-.01-.62-.59-.27-.9.3-.27.75-.01.82.43.7-.28,1.3-.13,1.91.35.3.23.53.42.63.79.1.36-.02.73.34.99.14.1,1.48.7,1.55.67.62-.25,1.14-.16,1.75,0,.23.06.39.14.5.22l7.69-2.01-13.17,30.66s0,.02.01.03c-.01.02-.03.03-.04.04l-4.91,11.42s.06.01.09.02c.52.2.65,1.05.25,1.37-.08.07-.47.13-.7.1-.08-.01-.17-.05-.25-.09l-4.39,10.22h-16.12l-3.08,7.55h24.17s21.11-49.14,21.11-49.14c-.86.02-1.75-.38-2.03-1.2ZM440.35,16.66c-.14.15-.47-.26-.48-.21.06-.19.62.07.48.21ZM422.95,7.54c-.06-.06.05-.15.05-.16.21-.27.15.36-.05.16ZM424.6,9.87s-.12.03-.2-.02c-.07-.06-.1-.14-.06-.18.04-.04.12-.03.19.02.07.06.1.14.06.19ZM423.59,6.9c.1-.15,1.49.08,1.38.43-.1.33-1.54-.2-1.38-.43ZM425,8.45c-.05-.04-.06-.12-.02-.18.04-.06.12-.06.18-.02.05.04.06.12.02.18s-.12.06-.18.02ZM425.41,11.52c-.04.05-.14.05-.21,0-.07-.06-.09-.15-.05-.2.04-.05.14-.05.21,0,.07.06.09.15.05.2ZM425.56,10.4c-.06.07-.17.08-.25.01-.08-.07-.1-.18-.04-.25.06-.07.17-.08.25-.01.08.06.1.18.04.25ZM428.66,6.88c.05-.06.15-.07.22,0,.07.06.09.16.04.22-.05.06-.15.07-.22,0-.07-.06-.09-.16-.04-.22ZM426.49,10.49c.05.08.29.14.2.24-.15.15-.45-.05-.2-.24ZM426.41,10.21s.12-.04.18.01c.06.05.08.13.05.17-.04.05-.11.04-.18,0-.06-.05-.08-.13-.05-.17ZM426.82,11.38c-.18,0-.33-.07-.33-.15s.15-.15.33-.15.33.07.33.15c0,.08-.15.15-.33.15ZM428,12.17c-.13-.06-.27-.1-.16-.28.13-.02.28.15.16.28ZM428.47,10.51s-.08.04-.12.01c-.03-.03-.04-.08-.01-.12.03-.04.08-.04.12-.01.04.03.04.08.01.12ZM428.87,11.74c-.04.05-.12.06-.18.02-.05-.04-.06-.12-.02-.18.04-.05.12-.06.18-.02.05.04.06.12.02.18ZM429.47,10.67c-.07.09-.2.1-.29.03-.09-.07-.1-.2-.03-.29.07-.09.2-.11.29-.03.09.07.1.2.03.29ZM429.57,9.65c-.35.05-.6-.25-.93-.44-.13-.04.08.27-.09.24-.36.16-.58-.26-.87-.39-.31-.14-.54.06-.82,0-.29.63-1.32.4-.87-.19.36-.47,1.06.07,1.44-.13.08-.53.36-1.15.92-1.21.62-.07,1.01.54,1.31,1.06,0,.07-.05.15-.13.16.49.28.48.67.04.91ZM429.84,7.87c-.11,0-.21-.05-.21-.12,0-.07.09-.13.21-.13.12,0,.21.05.21.12,0,.07-.09.13-.21.13ZM430.44,10.06s-.08.04-.12.01c-.04-.03-.04-.08-.01-.12.03-.04.08-.04.12-.01.03.03.04.08.01.12ZM395.65,69.38c-.22.45-1.16-.24-.46-.46.27-.08.62.13.46.46ZM397.09,70.22c-.14.52-1.11-.19-.63-.42.27-.13.71.12.63.42ZM399.24,70.08c-.13-.09-.19-.18-.07-.29.03.04.06.02.08,0,.13.08.1.19-.01.3ZM400.49,69.3c.37,0,.54.25.62.58-.47.84-1.35-.18-.62-.58ZM403.79,65.62s-.19.03-.17-.08c.02-.17.2.05.17.08ZM407.32,66.76c-.23.23-.72-.03-.65-.45.44-.63.94.16.65.45ZM415.33,68.73c-.67.65-2.09-.27-1.89-1.21.16-.74.8-1.04,1.52-.63.61.34.99,1.25.37,1.85ZM416.97,64.01c-.11-.06-.1-.13-.15-.2.08-.07.17-.04.26.06l-.11.14ZM421.46,49.98c-.4.87-2,.1-1.32-.76.29-.37.62-.32,1.03-.02.29.21.41.54.3.78ZM421.72,45.98c-.06.06-.25,0-.13-.13.09-.09.19.07.13.13ZM428.75,36.63c.05,0-.04-.32.01-.41.05-.09.21-.12.29-.13.16-.02.31.15.29.29-.03.29-.41.41-.6.24ZM431.35,31.46c.05-.02.11-.04.16-.1.12.07.18.15.2.24-.11.09-.34.05-.36-.13ZM433.72,26.06c-.53,1.16-1.58-.97-.34-.6.43.13.43.4.34.6ZM431.79,20.18c-.23-.61-.07-1.49.96-1.65.34-.05.71-.02.96.16,1.69,1.23-1.14,3.51-1.92,1.49ZM434.28,24.45c.24-.05.61.15.64.44-.16.84-1.4.18-.64-.44ZM436.42,14.47c.06.33-.57-.07-.53-.16.02-.06.51.02.53.16Z"/>
        <path class="cls-1" d="M405.88,15.91c.19-.02.48.16.64.24.37.18.72.41,1.07.64,0-.37.04-.79-.02-1.04-.11-.48-.26-1.83-.74-1.76-.28.04-.09.41-.43.53-.27.1-.41-.21-.64-.05-.28.2-.09.83-.05,1.07.02.12.04.27.07.42.05-.03.09-.05.11-.05Z"/>
        <path class="cls-1" d="M423.33,13.6c-.62.21-1.23.5-1.87.66-1.06.26-1.85-.13-2.36-1.1-.04-.02-.08-.03-.12-.04-.05.05-.09.11-.12.17-.08.17,0,.29-.11.37-.08.06-.23-.04-.37,0-.17.05-.69.38-1.01.32-.1-.02-.28-.15-.47-.32,0,.06-.02.13-.08.2-.33.41-.76-.1-.48-.38.08-.08.19-.1.3-.08-.14-.16-.25-.32-.28-.44-.1-.38-.08-.72.03-1.01-.15-.09-.37-.22-.55-.32,0,.03,0,.06-.01.1-.02.1-.32.56-.53.64-.05.02-.34,0-.37.05-.15.25.08.55.05.75,0,.04-.02.09-.04.15.12.01.24.07.34.2.39.52-.1.95-.63.7-.04-.02-.07-.04-.11-.06-.17.29-.34.54-.41.61-.04.04-.19.01-.21.05-.04.06-.25.93-.53.53-.2-.29.13-.33.16-.43.06-.19,0-.54.11-.91.16-.58.59-.85.48-1.23,0,0,0,0,0-.01-.3.32-.7.27-.96.06-.09.48-.23,1.34-.25,1.55-.05.42-.03.78-.05,1.06-.03.39,0,.71.04,1.02.17-.06.36.04.45.24-.07.06-.02.12-.07.18,0,.01-.02.02-.03.03l.29-.08c-.25-.69,0-1.52,1.12-1.6.56-.04,1.14.37,1.29.97l10.35-2.71c-.4-.06-.83-.17-1.09-.4-.21-.18-1.62.38-1.87.47Z"/>
        <path class="cls-1" d="M396.75,16.45c.11-.01.19,0,.25.01-.03-.17-.03-.35-.04-.53-.07-.02-.14-.05-.22-.12-.02-.11,0-.19.04-.25-.2-.05-.4-.16-.59-.28-.38.08-.77.16-1.16.24-.36.41-.79.68-1.25.85.03.07.08.02-.11.06-.17.04-.27.41-.21.48.09.12.4.22.32.27-.23.15-.23-.35-.64-.27-.04,0-.39.18-.37.37.01.18.18-.11.16.11-.03.27-.05-.05-.11,0-.04.03.25.52-.05.11-.09-.13-.31-.75-.64-.21.13-.21.27.5.21.59-.13.19-.33-.13-.27-.27.03-.06.05-.09.06-.1-.01-.01-.03-.04-.06-.11-.01-.03.03-.25,0-.27-.32-.15-.59.48-.58,0,0-.37-.97.23-1.12.37-.06.07.05.22-.21.35.16-.1-.49-.07-.69.03-.21.1-.43.36-.55.51.06.03.13.07.19.11.06-.25.13-.52.35-.3.08.07.09.29.08.56.27.16.54.32.81.48.05-.05.1-.1.12-.14,0,.02.02-.53.15-.63,0-.04,0-.06.01-.07,0,0,0,.05,0,.05,0,0,0,0-.01.01.01.16.15.57.21.52-.04.11-.15.24-.27.36.3.19.61.38.91.58,0-.08-.01-.16.02-.2.03-.05.13.07.16.05.15-.09.2-.57.27-.64.15-.16.37-.1.64-.21.2-.08.29-.28.37-.27.19.02.21.28.27.32.11.08.33.04.43.11.35.24.65,1.13.37,1.65-.14.28-.48.4-.73.53.14.12.28.24.42.37.14-.15.11.1.04,0,.01.01.05.04.1.09.11-.14.24-.27.39-.36.1-.06.04-.46.17-.58.14-.12.36-.1.53-.09.32.01.89.1,1.09.39,0,.12-.03.25-.04.37l.3-.08s-.04-.07-.03-.11c.1-.21.34-.14.43,0l1.28-.34c-.09,0-.19-.02-.27-.07-.76-.46-.18-1.65.69-1.26.71.32.41.99-.06,1.24l1.34-.35c-.5-.3-.57-.99-.82-1.26-.45-.49-1.52-.3-.9-1.14-.07-.24-.28-.46-.35-.69.29.26.72.61.94.94.16-.03.5.34.14.18.02,0-.03-.03-.08-.07.1.19.11.37.27.55.11.12,1.13,1,1.19.97.27-.1.53-.17.81-.19-.05-.05-.11-.11-.2-.2-.11-.11-.31-.16-.41-.26-.25-.23-.33-.62-.53-.88-.21-.25-.55-.44-.64-.68-.11-.27.1-.47.07-.69-.01-.1-.29-.35-.23-.43.1-.12.36.08.44,0,.11-.1-.23-.24-.08-.34.06-.04.3.1.33.1.13-.01.33-.35.33-.51-.01-.03-.03-.06-.04-.09-.03-.05-.08-.12-.13-.2-.22-.03-.42-.09-.54-.19-.11-.08-.18-.23-.27-.36-.12-.03-.22-.11-.28-.24,0,0,0-.01,0-.02-.05-.03-.11-.05-.17-.05-.11-.01-.32.04-.57.11.01.06,0,.13-.06.18-.05,0-.1-.01-.14-.03-.06.25-.28.43-.51.51.05.05.09.12.09.21-.03.04-.06.06-.08.09.21.44.49.87.27,1.36-.22-.07-.35-.22-.43-.41-.13.28-.54.55-.67.08-.09-.32.1-.39.34-.42ZM390.91,19.54c-.16-.16.07-.51.11-.53.3-.21.15.79-.11.53ZM391.07,17.67c-.27.41-.17.41-.35.61-.05.1-.13.18-.23.25-.08.1-.15.17-.17.15-.02-.01-.02-.04-.02-.07-.1.03-.2.03-.26-.03-.28-.24.21-.74.54-.55,0-.02.01-.04.01-.05,0-.04-.19-.26-.02-.41-.05.09.69,0,.61-.07.13.13-.04.06-.11.16ZM395.75,16.07c.11-.21.35.2.16.27-.1.04-.23-.13-.16-.27ZM396.05,17.59c.04.18-.02.32-.12.42.03.02.04.05.02.09-.02.04-.15.05-.2.01-.19.05-.41-.02-.54-.3.04-.42.45-.7.84-.23ZM393.66,17.6c.19-.5.75-.18.7.15-.22.31-.65.17-.7-.15ZM396.02,21.08c-.25-.13-.09-.82.05-.91.48-.29.55,1.23-.05.91ZM396.76,18.2c-.1,0,.01-.07,0,0h0ZM395.82,19.65c-.31.21-.73.29-1.07.07-.96-.63-.11-1.94.87-1.46.39.19.56.42.59.66.04-.01.07-.03.11-.03,1.2.53-.14,1.5-.51.77Z"/>
        <path class="cls-1" d="M401.8,14.41c.23-.15.43-.33.48-.46-.36.08-.67.21-.76.52-.01.04-.02.08-.02.11.06-.03.13-.06.19-.1-.05-.05-.08-.1-.08-.11.01-.06.1-.02.19.04Z"/>
        <path class="cls-1" d="M370.67,37.48c.16.47.14.99-.03,1.48.28-.07.51-.15.6-.2.46-.28,1.34-1.54,1.27-2.11-.01-.11-.07-.11-.17-.3-.16-.31-.3-.58-.44-.85-.02,0-.05,0-.08-.02-.24-.09-.17-.14-.02-.16-.1-.19-.22-.39-.34-.6-.08.14-.17.27-.25.41l-.78,1.91c.06.12.17.25.24.44Z"/>
        <path class="cls-1" d="M412.94,17.02s0,0,0,0h.02s-.01,0-.02,0Z"/>
        <path class="cls-1" d="M376.97,21.73c.1.05.29-.01.38,0,.09.01.18.04.28.07-.02-.07-.04-.14-.06-.2-.23-.08-.48-.15-.72-.24l-.06.14c.06.09.1.2.18.24Z"/>
        <path class="cls-1" d="M412.2,11.06c-.12.08-.34.38-.32.48.02.12.32.35.48.32.24-.04-.05-.22.21-.21.11,0,.13.11.27.16.05.02.16.02.29.01.19-.14.44-.16.66-.09.14-.03.24-.06.27-.09.05-.05-.02-.29,0-.37,0-.02.01-.03.02-.05-.35-.18-.71-.38-1.11-.4-.02,0-.04,0-.06,0,0,0-.02.01-.02.02-.02.04.04.12.05.11-.12.14-.38.33-.48.32.02,0,.08-.46-.27-.21Z"/>
        <path class="cls-1" d="M409.81,17.78c-.18-.1-.13-.21-.21-.38.51-.75.8.04.61.34l2.33-.61c.14-.69.05-1.66.08-2.39.03-.48.19-1.07,0-1.44-.1-.19-.48-.3-.69-.48-.36-.31-.65-1.02-1.28-1.07-.52-.04-1.16.24-1.49.48-.6.43-.91,1.14-1.04,2,.19.2.14.47-.06.58-.04.56-.01,1.17.03,1.79.02.22.03.45.05.66.21.26.34.57.43.91l1.33-.35s-.06-.02-.1-.04ZM411.91,13.89c.18.08.33.15.22.41-.45,1.02-1.22-.83-.22-.41ZM410.86,13.32c-.04.22-.45.4-.54.12-.18-.52.63-.59.54-.12Z"/>
      </g>
      <g>
        <path class="cls-1" d="M249.95,168.81s-.01-.03-.02-.03c0,.03,0,.05.01.08,0-.02.01-.04,0-.05Z"/>
        <path class="cls-1" d="M249.43,168.57s-.02,0-.03,0c-.01,0-.03,0-.04,0,.03.03.05.05.08.05,0,0,.02,0,.02,0-.01-.02-.02-.04-.03-.05Z"/>
        <path class="cls-1" d="M249.93,168.78s.02-.05,0-.09c0,.03,0,.06,0,.09Z"/>
        <path class="cls-1" d="M249.53,170.41s.02-.02.03-.03c.04,0,.07.05.09.03,0,0,0-.02,0-.03-.01,0-.02,0-.04-.02,0-.03,0-.05.02-.06,0-.02-.01-.05-.01-.07,0,0,0-.02-.01-.02-.02-.03-.04-.06-.05-.09-.01-.02-.02-.04-.03-.07-.06.02-.09.04-.18.05-.02,0-.04,0-.07.01.01.02.03.05.04.07,0,0,0,.02,0,.02.02.02.04.03.06.05,0,.03,0,.06-.03.07.04.08.09.15.14.23,0-.03,0-.05.01-.08-.02,0-.03,0-.05-.02-.01-.06.05-.08.08-.05ZM249.44,170.29c.06-.11.18-.03.14.05-.06.06-.12.02-.14-.05Z"/>
        <path class="cls-1" d="M249.27,168.59c-.09.02-.17.05-.19.13,0,.01,0,.02,0,.03.02,0,.03-.02.05-.03-.01-.01-.02-.03-.02-.03,0-.01.03,0,.05.01.06-.04.11-.08.12-.12Z"/>
        <path class="cls-1" d="M249.03,171.33s-.04-.05-.06-.07c-.05,0-.1-.01-.13-.08,0-.13.11-.13.17-.09,0-.08-.01-.16-.02-.25-.12,0-.24-.06-.34-.17-.1-.12-.1-.27-.02-.4-.15-.07-.16-.26-.23-.33-.11-.12-.38-.08-.23-.29-.02-.06-.07-.12-.09-.18.07.07.18.15.24.24.04,0,.13.09.04.04,0,0,0,0-.02-.02.02.05.03.09.07.14.03.03.28.25.3.25.07-.02.13-.04.2-.05-.01-.01-.03-.03-.05-.05-.03-.03-.08-.04-.1-.07-.06-.06-.08-.16-.14-.22-.05-.06-.14-.11-.16-.17-.03-.07.03-.12.02-.17,0-.03-.07-.09-.06-.11.03-.03.09.02.11,0,.03-.02-.06-.06-.02-.08.02,0,.08.03.08.02.03,0,.08-.09.08-.13,0,0,0-.02-.01-.02,0-.01-.02-.03-.03-.05-.06,0-.11-.02-.14-.05-.03-.02-.05-.06-.07-.09-.03,0-.06-.03-.07-.06,0,0,0,0,0,0-.01,0-.03-.01-.04-.01-.03,0-.08.01-.14.03,0,.02,0,.03-.01.05-.01,0-.02,0-.04,0-.01.06-.07.11-.13.13.01.01.02.03.02.05,0,0-.01.02-.02.02.05.11.12.22.07.34-.06-.02-.09-.06-.11-.1,0,0,0,0,0,0v1.44s0,.01,0,.02v1.54s.07.06.08.1c.01.06-.07.11-.03.17.07.12.05.13-.01.24-.01.02-.03.04-.04.07v.06s.04.06.04.1c0,.04-.01.05-.04.06v.74c.09,0,.18.14.03.22-.01,0-.01-.01-.03-.02v.46s.03.02.03.03c0,.02-.02.01-.03.02v.99s.02,0,.04,0c.03.02,0,.08-.01.09-.01,0-.02,0-.03,0v.15c.1.09.2.1.32.14.14.04.25.13.36-.02.03-.04.05-.14.08-.22.07-.17.18-.36.14-.53,0,0,0,0,0,0-.02-.03-.01-.08.04-.09,0,0,0,0,0,0,.1-.26,0-.49.01-.74-.02.04-.06.07-.1.08.03.06.04.12,0,.18-.1.13-.27.02-.31-.13.04-.16.13-.18.21-.14,0-.05.04-.1.1-.12,0,0,0,0,.01,0,0,0-.01-.01-.01-.02-.04-.14.06-.3.19-.31.01,0,.03,0,.04,0,.01-.08.02-.15.02-.22.01-.24,0-.48.01-.71-.17-.25-.44-.48-.59-.74-.05-.09-.07-.25-.14-.31-.08-.07-.35-.05-.27-.23.07.02.07.11.16.16-.05-.07-.02-.28.12-.21.08.04.09.19.12.28.11.32.32.77.59.92,0-.08,0-.15,0-.23,0,0-.01-.02-.02-.03,0-.01.01-.02.02-.02,0-.41-.03-.81-.05-1.21ZM248.66,173.08s.04-.06.11-.04c.08.02.11.08.11.13,0,.19-.34.07-.23-.08ZM248.47,170.59s-.03.01-.04.03c-.02-.01-.03-.03-.03-.04.03-.04.06-.03.07,0ZM248.03,170.5s-.06-.02-.06-.05c.02,0,.03,0,.04-.03.04.02.05.05.02.08ZM248.07,174.59s-.04-.05-.03-.07c.03-.03.06.06.03.07ZM248.26,175.81c-.07.01-.12-.03-.12-.1.04-.05.09-.06.15,0,0,.03-.02.06-.03.09ZM248.19,171.94s.06.04.06.07c-.02.04-.04,0-.06.03-.03-.03-.04-.06,0-.1ZM248.22,174.22c.1,0,.2.03.19.14,0,.2-.42.24-.38-.01.01-.08.07-.12.19-.13ZM248.11,170.34c-.19-.12-.05-.42.17-.32.26.12-.01.42-.17.32ZM248.39,170.44s-.04.06-.09.03c.01-.05.04-.06.09-.03ZM248.29,171.05c-.1-.07-.08-.26.08-.29.29.06.09.41-.08.29ZM248.42,171.36c-.01-.07,0-.12.08-.15.06-.02.13,0,.15.04.11.19-.19.27-.23.11ZM248.91,171.34c.05-.06.13.01.08.07-.05,0-.07-.02-.08-.07Z"/>
        <path class="cls-1" d="M248.04,168.46s-.05.06-.07.08h0c.12-.06.24-.13.34-.2-.01-.02-.02-.04-.03-.05-.01-.01-.04-.05-.08-.08-.02.04-.04.07-.07.1-.01.01-.04.02-.07.04,0,.03,0,.05,0,.08.04,0,.09,0,.09,0,0,0-.05.03-.06.04-.02,0-.03,0-.04-.01Z"/>
        <path class="cls-1" d="M250.04,169.16s.02,0,.04-.02c-.03-.09-.05-.19-.07-.21,0,0-.03,0-.05,0,.02.07.04.15.08.23Z"/>
        <path class="cls-1" d="M250.42,168.6c-.07,0-.02.1-.11.13-.07.03-.1-.05-.16-.01-.07.05-.02.21-.01.27,0,.03.01.07.02.11.01,0,.02-.01.03-.01.05,0,.12.04.16.06.09.05.18.1.27.16,0-.09,0-.2,0-.26-.03-.12-.07-.46-.19-.44Z"/>
        <path class="cls-1" d="M251.01,168.15c-.15.11-.23.29-.26.5.05.05.04.12-.02.15,0,.14,0,.3,0,.45,0,.06,0,.11.01.17.08.09.11.21.14.34,0,.04.01.08.01.12.03.04.05.09.07.15.08-.06.2-.08.33-.1.15-.02.29,0,.38.07-.04-.07,0-.25.04-.35.02-.07.09-.13.12-.2.06-.17.03-.46.04-.67,0-.12.05-.27,0-.36-.03-.05-.12-.08-.17-.12-.07-.06-.13-.17-.22-.23h-.32c-.06.02-.12.05-.16.08ZM251.71,168.57s.08.04.05.1c-.11.26-.31-.21-.05-.1ZM251.44,168.43c-.01.06-.11.1-.14.03-.04-.13.16-.15.14-.03ZM251.18,169.55s-.03-.05-.05-.1c.17-.26.25.21.05.1Z"/>
        <path class="cls-1" d="M296.42,248.92c-3.37,0-5.9-.74-7.58-2.21-1.68-1.47-2.53-4.26-2.53-8.35v-53.69h17.14v-16.6h-17.14v-23.82h-22.47v23.82h-8.1s.06.04.03.07c-.03-.01-.06-.03-.04-.07h-1.14s.02.08.06.11c.03.02.37.18.39.17.16-.06.29-.04.44,0,.21.06.22.17,0,.15-.13-.01-.33-.03-.43-.12-.05-.04-.41.1-.47.12-.16.05-.31.13-.47.17-.27.06-.47-.03-.6-.28-.01,0-.02,0-.03,0-.01.01-.02.03-.03.04-.02.04,0,.07-.03.09-.02.02-.06,0-.09,0-.04.01-.17.09-.26.08-.02,0-.07-.04-.12-.08,0,.02,0,.03-.02.05-.08.1-.19-.03-.12-.1.02-.02.05-.03.08-.02-.04-.04-.06-.08-.07-.11-.02-.1-.02-.18,0-.25,0,0-.02-.01-.03-.02h-.14s-.07.11-.11.12c-.01,0-.09,0-.09.01-.04.06.02.14.01.19,0,.01,0,.02,0,.04.03,0,.06.02.08.05.1.13-.02.24-.16.18-.01,0-.02-.01-.03-.02-.04.07-.09.14-.1.16,0,0-.05,0-.05.01,0,.01-.06.24-.13.13-.05-.07.03-.08.04-.11.01-.05,0-.14.03-.23.04-.15.15-.21.12-.31,0,0,0,0,0,0-.08.08-.18.07-.24.02-.02.12-.06.34-.06.39-.01.11,0,.2-.01.27,0,.1,0,.18.01.26.04-.02.09,0,.11.06-.02.02,0,.03-.02.05-.02.03-.05.03-.08.02,0,.07.01.14,0,.22-.02.16-.11.42-.17.44-.03.01-.06.02-.07.01.03.03.05.07.06.11.01.07-.05.14-.04.21.01.09.12.14.14.23.04.24-.26.39-.49.34,0,0,0,0,0,0-.03.02-.05,0-.05-.02-.08-.03-.15-.09-.18-.18-.02-.05,0-.11-.01-.16-.02-.05-.07-.08-.12-.11,0,.04,0,.07-.01.11.02.02.02.04-.01.07,0,0,0,0-.01,0,0,0,0,.01,0,.02,0,.1.12.4-.09.38-.07,0-.11-.11-.12-.22,0-.11-.03-.25-.05-.39-.14.09-.29.17-.44.19,0,.02,0,.04,0,.05-.01.14-.14.35-.37.34-.05,0-.09-.01-.14-.03.02.04.05.07.07.11,0,0,.01.02.02.03.06-.07.15-.11.24-.02.02.02.07.17.06.21,0,.04-.04.08-.08.1.02.02.03.04.05.06.07.1.12.24.18.32.03.01.05.04.06.07.07.05.16.07.21.11.15.11.22.36.11.51-.29.39-.99-.21-.59-.54,0-.02,0-.05.02-.07-.03-.12-.16-.23-.24-.38-.01-.03-.03-.06-.04-.09-.04-.03-.05-.07-.05-.12-.13-.24-.3-.48-.45-.72-.01.05-.03.09-.06.13,0,.01.01.03,0,.05-.03.03-.06.04-.09.03-.06.04-.11.06-.17.07.02.13.03.26.03.39.05.09.1.19.09.2-.01.01-.05,0-.09-.05,0,.06,0,.11,0,.17,0,0,0,0,0-.01.06-.07.11-.07.21.02.04.18-.15.18-.22.11h0c.04.3.04.59.06.88.02.01.03.05,0,.07,0,.1.01.19.02.29.14.06.3.16.46.22.1.04.38.07.31.28-.26-.11-.53-.31-.77-.24,0,.25,0,.5,0,.75.11.08.14.25.04.38,0,.01,0,.02,0,.04.01.21-.13.42-.15.64.02.16-.02.28-.06.46-.03.13-.01.26-.05.38-.04.14-.13.25-.2.39-.01.02-.01.05,0,.08.04,0,.09-.03.12-.02.02,0,.03.09.07.1.04,0,.07-.05.09-.02.03.03-.03.03-.04.07,0,.04.07.15.06.22,0,.05-.13.15-.16.19-.02.03,0,.07-.03.09-.03.03-.06.06-.11.06.01,0,.02.01.04.03.03,0,.08,0,.12.01.1.04.24.15.23.24,0,.12-.09.14-.14.14-.04,0-.09-.01-.13-.04-.02,0-.02-.04-.05-.06-.08-.06-.17-.07-.12-.2,0,0,0-.01.01-.02-.02-.02-.01-.07.01-.09,0,0,0,0-.01,0-.07,0-.13-.05-.16-.09-.13.04-.28.03-.39-.03-.06-.03-.12-.09-.19-.15v.57s0,0,0,0c.09-.04.08.12,0,.09v3.14c.11.05.12.15.05.22-.02.02-.04.03-.05.03v2.06s0,0,0,0c0,0,0,0,0,0v1.87h.98c.03-.06.06-.1.15-.04.02.01.03.03.04.04h14.71v55.22c0,9.63,2.29,16.63,6.86,21.02,4.57,4.39,10.83,6.59,18.77,6.59,5.41,0,10.29-.72,14.62-2.17v-17.33c-2.71.6-5.27.9-7.67.9ZM249.4,171.38l.06.05c-.03.06-.07.06-.11.01l.05-.06ZM249.17,171.79c.11-.04.23.11.14.19-.1.1-.3-.13-.14-.19ZM249.26,172.13s.14,0,.1.09c-.04.08-.23-.04-.1-.09ZM249.41,172.61s.01.04.04.05c-.03.04-.06.05-.09,0,0-.03.02-.06.05-.06ZM249.32,172.83c.05-.05.13-.02.17.03-.05.08-.17.04-.17-.03ZM249.44,171.73s.02,0,.03,0c.04,0,.28.17.25.22-.14.21-.47-.2-.28-.22ZM248.94,179.8s-.01-.04,0-.06c.02-.02.05-.02.07,0,.02.02.02.05,0,.07h0s0,0,0,0c0,0,0,0-.01,0-.02.01-.04.01-.06,0,0,0,0,0,0,0,0,0,0,0,0,0,0,0,0,0,0,0ZM248.89,180.56s.02.04,0,.06c-.01.02-.04.02-.06,0-.02-.01-.02-.04,0-.06.01-.02.04-.02.06,0ZM248.35,177.06c.06-.05.16-.02.2.07-.04.18-.27.07-.2-.07ZM248.19,179.52c.1.04.15.21.02.29-.23.15-.28-.38-.02-.29ZM248.27,184.55l.05.04c-.02.05-.11,0-.05-.04ZM248.17,177.43c.09-.05.04-.1.1-.15.16-.13.42.1.21.29-.12.04-.2-.07-.32-.14ZM248.41,178.37s.03-.1.05-.07c0,0-.07.13-.05.07ZM248.44,180.32s.05-.02.07,0c.02.02.02.05,0,.07-.02.02-.05.02-.07,0-.02-.02-.02-.05,0-.07ZM248.51,182.76s-.05-.05-.02-.07c0,.01.02,0,.02,0,.03.02.03.05,0,.08ZM248.61,178.42s-.14-.07-.09-.11c.06-.05.13.08.09.11ZM248.64,177.38c-.06,0-.12-.04-.08-.11.08-.13.26.11.08.11ZM248.82,182.57c.09,0,.14.06.16.15-.12.21-.34-.05-.16-.15ZM248.93,180.83l.04-.05s.07.03.07.06c-.04.06-.09.03-.11,0ZM255.01,172.8c-.08,0-.1-.14,0-.16.11-.02.11.17,0,.16ZM254.24,170.3s.05.06,0,.09c-.06,0-.08-.08,0-.09ZM254.01,169.12s.01.02,0,.03c0,0-.02.01-.03,0,0,0-.01-.02,0-.03,0,0,.02-.01.03,0ZM253.54,171.75c-.36.06-.53-.5-.12-.55.15-.02.3.07.32.22.03.19-.1.32-.2.34ZM253.5,174.13s.04-.04.06-.05c.08.04-.01.13-.06.05ZM253.68,170.04s-.2.05-.22-.08c-.01-.24.39-.1.22.08ZM253.56,169.48s-.05.08-.11.08c-.17-.09.08-.25.11-.08ZM253.53,170.58s.08.07.04.14c0,0,0,0,0,0,.04.03.06.06.08.09-.03.06-.06.06-.09.05,0,0,0,.02,0,.02-.04.13-.19.25-.34.26-.12,0-.29-.06-.35-.16-.02-.03-.03-.09-.04-.15-.04.05-.15.07-.08-.09.04,0,.06.02.08.03,0-.09.01-.18.04-.23.04-.07.15-.13.23-.15.2-.05.36.04.44.18ZM252.88,169.69c.05-.06.15-.08.26,0,.14.1.08.27-.04.33,0,.03-.02.05-.02.08,0,.03.02.09.01.12-.1.39-.79.36-.87-.05-.05-.28.14-.49.4-.52.09-.01.19.01.27.06ZM252.4,168.92c.17-.01.36.14.34.35-.01.13-.18.27-.26.28-.38.08-.61-.59-.08-.63ZM251.08,172.47s.29-.28.29-.28c-.05-.14-.03-.29.06-.4.04-.04.22-.16.2-.22-.11-.49.43-.9.83-.52.18.17.24.5.03.68-.03.02-.29.16-.29.16.02.13,0,.29-.11.39.16.1.31.38.27.57-.09.38-.64.74-1.01.57-.22-.1-.39-.36-.39-.61,0-.13.04-.24.11-.34ZM251.99,176.55s.01,0,.02-.03c.02-.02.01-.07.03-.08.07-.08.23-.13.34-.09.07.03.17.15.18.21.02.16-.1.33-.24.34-.03,0-.1,0-.14-.02-.11-.03-.2-.16-.21-.28,0-.02.02-.04.02-.04,0-.02,0-.02,0-.02ZM252.47,174.19c-.05.03-.22-.14-.17-.19.05-.05.25.14.17.19ZM252.52,176.16c-.2-.07.13-.19,0,0h0ZM252.24,176.13c-.18-.02-.2-.22-.1-.31.24-.2.44.34.1.31ZM252.07,175.33c0-.17.19-.09.17.02-.02.1-.17.09-.17-.02ZM252.54,172.45c-.12.05-.22-.15-.06-.19.13-.03.15.16.06.19ZM251.55,176.18c.11-.02.17.08.14.15.03.02.06.06.07.09-.07.13-.15.04-.22,0,.03,0,.03-.02.03-.04-.07-.02-.13-.1-.02-.21ZM251.23,177.9c-.02.08-.1.13-.16.08-.01-.03.01-.06-.02-.08.05-.08.12-.06.18,0ZM251.11,175.07s.09.04.04.08c-.03,0-.09-.04-.04-.08ZM251.16,175.19c0-.09.14-.04.07.04-.02,0-.05-.01-.07-.04ZM251.24,174.37c-.16-.04-.16-.29-.08-.38.01-.02.08-.07.2-.07.11,0,.24.09.2.26-.03.15-.21.22-.32.19ZM251,173.16c.24.12,0,.37-.15.23-.08-.08-.04-.32.15-.23ZM250.98,177.66s-.08.02-.12-.02c0-.03.04-.08.07-.08.05.03.07.06.05.1ZM250.64,172.64c-.02-.15.34-.13.21.06-.04.07-.08.02-.14.05-.02-.02-.04-.04-.05-.06-.02.02-.05.01-.07,0,0-.04.02-.05.05-.05ZM250.66,173.34c-.01.05-.12-.02-.09-.05.04-.04.1,0,.09.05ZM249.12,176.75s0-.05.02-.05c.03,0,0,.05-.02.05ZM249.25,180.72s0-.07.04-.07c.02.01.01.03.03.04-.02.04-.05,0-.07.03ZM249.28,176.59c-.1.02-.08-.11-.01-.11.06,0,.08.09.01.11ZM249.32,176.13c-.12.03-.24-.22-.11-.28.15-.06.23.25.11.28ZM249.41,174.65s-.1-.05-.04-.09c.04.03.08.06.04.09ZM249.59,183.62c-.05,0-.11-.04-.12-.1.07-.16.24,0,.12.1ZM249.55,179.89s.01,0,.02,0c.01-.01.03-.01.05,0,.02.01.02.04,0,.06-.01.02-.04.02-.06,0,0,0-.01-.02-.01-.03,0,0,0-.02,0-.03ZM249.62,181.62s.05.01.04.02c0,0-.05,0-.04-.02ZM250.06,180.23s0,0,0,0c-.02-.02-.02-.05,0-.07.02-.02.05-.02.07,0,.02.02.02.05,0,.07,0,0,0,0,0,0,.02.01.03.02.02.04-.01.04-.07,0-.07-.03ZM250.25,179.15c-.08-.01-.15-.07-.16-.14,0-.06.06-.15.05-.16-.01-.04-.06-.01-.11-.06-.02-.02-.03-.04-.04-.08-.03-.03-.06-.07-.08-.09-.04-.07-.05-.14-.13-.16-.05-.01-.11.03-.17.02-.11-.02-.22-.21-.07-.27.17-.06.25.11.33.19.03.03.1.08.15.13,0-.01.02-.02.04-.03.1-.06.31.05.27.19-.03.12-.12.05.03.13.18.1.07.34-.11.32ZM249.48,175s-.03-.06,0-.1c.03.02.07.02.07.06-.02.05-.05.02-.07.04ZM249.83,176.89c.22-.05.18.26.01.26-.14,0-.16-.22-.01-.26ZM249.71,175.03s-.05-.05-.02-.07c0,.01.01,0,.02,0,.03.02.03.05,0,.08ZM249.68,174.71s-.11-.06-.11-.11c.05-.1.15-.07.19.01-.01.05-.04.06-.08.09ZM250.55,181.93c-.06.06-.18,0-.16-.11.11-.16.24.04.16.11ZM250.52,174.04s.03.07.03.11c0,.02-.02.05-.03.08,0,0,0,0,.01,0l-.03.03s0,0,0,.01c-.03.13,0,.07-.08.15-.03.03-.02.07-.04.08-.07.05-.17.06-.28.05-.41.22-1.02-.45-.47-.81.15-.1.45-.11.58.05,0,0,0,0,0,0-.05-.11-.02-.24.06-.31.03-.02.07-.05.11-.08.06-.04.13-.07.18-.06.12,0,.34.13.34.28,0,.21-.19.42-.39.4ZM250.94,180.19c-.23-.03-.15-.37.06-.33.12.02.17.2.09.29,0,0,0,0,0,.01l-.03.04s-.02,0-.03,0c-.03.01-.06.01-.1,0ZM251.39,181.36c-.15.02-.39-.17-.34-.36.01-.05.07-.08.13-.09.16-.03.35.18.33.35,0,.05-.07.09-.12.1ZM251.8,183.74s-.02,0-.03.01c-.09-.02-.16-.12-.1-.2.09-.05.21.09.13.18ZM251.74,178.08c0,.06-.03.06-.06.06-.12,0,.04-.18.06-.06ZM251.81,177.86s-.28.12-.31.16c0,0,0,.01-.01.02.02-.01.04,0,.06,0,.03.02.02.05.02.08-.02.03-.05.02-.08.02-.02-.01-.02-.02-.02-.04-.01.04-.02.08-.05.1-.09.04-.18-.07-.16-.13.03-.09.13-.03.21-.05.06-.02.11-.09.16-.14.06-.06.11-.11.13-.16.05-.16,0-.24.18-.28.23-.04.5.19.52.37.03.24-.2.29-.38.21-.1-.04-.19-.16-.27-.16ZM252.57,182.43c-.17.16-.53-.07-.48-.31.04-.19.2-.26.38-.16.16.09.25.32.09.47ZM252.68,171.04s.07-.01.07.02c.02.11-.26.02-.07-.02ZM252.99,181.23s-.03-.03-.04-.05c.02-.02.04-.01.07.01l-.03.04ZM253.08,178.89s-.12.03-.18.03c-.07-.01-.18-.09-.17-.19.01-.15.15-.23.28-.18.13.05.17.27.06.35ZM253.1,177.25c.11-.11.26.19.05.16-.05,0-.13-.09-.05-.16ZM253.25,184c-.05.02-.11-.07-.07-.11.06-.06.13.08.07.11ZM253.41,184.28s-.05-.05-.02-.07c.03.02.06.04.02.07ZM253.33,175.55c.04-.06.13-.13.27,0,.14.27-.42.25-.27,0ZM253.72,182.22c-.11-.16.24-.26.23-.01-.06.09-.18.08-.23.01ZM254.12,177.69c-.1.22-.51.02-.33-.19.07-.09.16-.08.26,0,.07.05.1.14.08.2ZM254.15,176.65s.05.02.03.03-.06,0-.03-.03ZM254.19,175.69c-.06-.04-.03-.1.02-.1.01.02.02.04.03.06-.02.02-.03.01-.05.04ZM254.66,173.05c-.12.35-.62.39-.85.15-.05-.04-.09-.08-.1-.12,0,0,0,0,0-.01-.02-.06-.04-.12-.04-.19,0-.11.04-.23.09-.31.09-.12.2-.17.32-.19.33-.04.7.28.57.67ZM254.39,172.31s.09,0,.13,0c.02.02-.05.04-.06.05l-.07-.06ZM254.44,169.13c-.23-.41.66-.25.29.04-.12.09-.24.04-.29-.04ZM254.91,171.16c.23.09.02.34-.11.27-.15-.08-.08-.34.11-.27ZM255.15,181.92c-.21-.09-.26-.28-.18-.36.21-.21.51.34.18.36ZM255.32,169.21s-.06-.01-.09-.03c-.02.02-.05.02-.09,0-.06-.02-.06-.09-.04-.14-.01-.05,0-.1.07-.14.22-.15.46.34.14.3ZM259.43,173.09s-.03.1-.06.05c0-.05.03-.04.06-.05ZM256.9,168.34s-.08-.03-.08-.04c0-.03.11.01.08.04ZM256.76,168.46s.04.03.04.05c-.02.02-.03.04-.05.04l-.04-.03s.02-.04.04-.05ZM256.28,168.58c.09.32-.41.24-.51.06-.18-.33.43-.33.51-.06ZM256.3,168.99c-.03.06-.11,0-.06-.05l.06.05ZM255.87,168.91c-.03.11-.18.14-.22.02-.05-.16.28-.21.22-.02ZM255.71,171.67s-.02-.05,0-.08c.03,0,.05.02.08.05-.02.05-.06.02-.08.03ZM255.96,174.32s0-.08,0-.1c.01-.02.05-.03.07-.03.04,0,.08.04.07.07,0,.07-.1.1-.15.06ZM256.02,170.18c-.01-.07.09-.08.09,0-.03.04-.06.05-.09,0ZM256.45,169.96c-.1.07-.34.12-.48.05-.13-.06-.34-.24-.26-.5.02-.05.08-.11.12-.16.09-.12.08-.17.28-.19.29-.03.55.28.5.55-.03.13-.06.18-.16.24ZM256.62,173.01s.03,0,.04-.03c.03.02.04.04.05.06-.03.02-.08.01-.09-.03ZM256.73,170.16c-.06-.15-.02-.38.24-.42.08-.01.18,0,.24.04.43.31-.29.89-.48.38ZM257.22,171.65c-.13.29-.4-.24-.09-.15.11.03.11.1.09.15ZM257.36,171.24c.06-.01.15.04.16.11-.04.21-.35.05-.16-.11ZM257.76,168.68s.13,0,.13.04c.01.08-.14-.02-.13-.04ZM257.84,179.21s-.1-.04-.05-.08c.03,0,.1.04.05.08ZM258.4,174.08c-.17.26-.2-.29,0,0h0ZM258.64,170.87c-.25.19-.72.12-.83-.2-.11-.31.16-.64.47-.65.4,0,.74.56.36.85ZM258.77,169.22s.16.02.12.05c-.04.04-.12-.06-.12-.05ZM259.04,177.6c-.14-.04.08-.13,0,0h0ZM259.2,171.26l-.06-.05.03-.04s.04,0,.07.04l-.04.05ZM259.41,176.34s-.1-.03-.07-.08c.03-.04.06,0,.1.02-.02.02,0,.04-.03.06ZM259.44,176.93c.06-.11.17,0,.16.07-.06.05-.15,0-.16-.07ZM260.31,172.53c.28-.13.03.3,0,0h0Z"/>
      </g>
      <g>
        <path class="cls-1" d="M243.02,176.33c.06.05.14.09.2.12.18.09.38.11.45.34.03.1-.02.22.01.34,0,.03.07.27.11.28.03,0,.05-.01.07-.05,0-.01,0-.03,0-.04-.02-.1-.06-.18-.07-.27-.01-.08,0-.16-.02-.25-.09-.52-.2-1.13-.27-1.64-.02.02-.08.05-.14.09-.03.05-.05.1-.06.15,0,0,.01,0,.02,0,.02.03,0,.04-.03.04-.02.06-.03.12-.05.18,0,.02,0,.03-.01.05.07.06.02.17-.06.2-.05.15-.1.3-.14.45ZM243.52,176.24s0,0,0,0c.08.03.07.17-.03.15-.11-.02-.09-.19.02-.16Z"/>
        <path class="cls-1" d="M242.65,175.61c-.02.08.12.29.15.35.05.09.08.18.12.25,0-.07.01-.14.02-.21.02-.21.09-.38.17-.56-.06.03-.13.06-.22.09-.06.02-.21.02-.23.09Z"/>
        <path class="cls-1" d="M242.68,174.08c-.06-.03-.14-.11-.18-.16,0-.01-.02-.03-.02-.05-.02,0-.04,0-.06,0,.04.07.08.14.11.2.02.04.02.12.04.14.03.03.13.04.16.05.1.04.18.16.27.14.01,0,.08-.08.07-.13-.01-.12-.26-.13-.38-.19ZM242.77,174.16c.05-.02.09,0,.1.03.06.18-.27.05-.1-.03ZM242.9,174.36s.04-.03.05-.04c.07.05,0,.12-.05.04Z"/>
        <path class="cls-1" d="M242.4,170.88s.04-.07.05-.1c-.02.01-.04.03-.05.05,0,.02,0,.03,0,.05Z"/>
        <path class="cls-1" d="M242.45,173.82s0,0,0,0c-.01-.05-.03-.09-.04-.13,0,.04-.02.08-.04.11,0,.01.01.03.02.04.03,0,.05-.01.06-.02Z"/>
        <path class="cls-1" d="M242.33,173.05s.02.02.03.02c.07.03.28-.03.29-.08,0-.03-.01-.07-.05-.11-.04.01-.09.02-.12-.03,0,0,0-.02,0-.03-.04.03-.08.05-.09.07-.02.03-.04.09-.05.16Z"/>
        <path class="cls-1" d="M242.59,168.07h-.05s0,.09-.01.14c.01,0,.02,0,.04,0,0-.04.02-.09.02-.13Z"/>
        <path class="cls-1" d="M242.39,173.4c.07.06.11.04.15,0-.02-.03-.04-.06-.05-.09-.03-.1.01-.08-.12-.14-.02,0-.04-.02-.06-.03,0,.1.02.2.08.26Z"/>
        <path class="cls-1" d="M237.84,169.88s.23.11.26.1c.09-.07-.13-.41-.23-.37-.12.04,0,.13,0,.21,0,.03-.03.04-.02.06Z"/>
        <path class="cls-1" d="M244.82,171.22s.02.03.03.06c.02,0,.04.01.07.02v-.02s-.06-.07-.1-.1c0,.02,0,.05,0,.07,0-.01,0-.02,0-.02Z"/>
        <path class="cls-1" d="M244.91,171.03s-.02,0-.02.02c0,0,.02.01.02.02v-.03Z"/>
        <path class="cls-1" d="M238,168.89s-.01-.08-.01-.13c0-.1.04-.19-.04-.18-.08,0-.14.18-.07.27,0,0,.12.05.13.04Z"/>
        <path class="cls-1" d="M238,170.63s.07.04.08.05c.01.02.02.05.04.09.03.03.08.06.12.1.03.02.06.11.12.05.02-.02-.02-.13-.03-.2-.02-.11-.04-.21-.07-.35-.02-.08-.07-.28-.12-.31,0,0-.03,0-.07,0-.08-.02-.2-.12-.24-.1-.03.02-.04.09-.06.12-.05.05-.1,0-.12.06-.02.07.09.19.16.27.07.08.15.17.2.22ZM238.1,170.17s-.02,0-.02,0c.09-.03.06-.02.02,0,.02,0,.03,0,.05,0,.08,0-.1.05-.11.04,0,0,.03-.03.06-.04Z"/>
        <path class="cls-1" d="M238.22,168.33c.05.04.13-.02.19-.03.3-.05.62.13.61.38-.01.24-.25.45-.47.52.06-.02-.04.02-.04.02-.01.04.15.1.17.12.14.09.21.14.35.22,0,0,.02.01.02.02.02-.06.05-.13.07-.19.07-.22.1-.43.12-.62-.02-.05-.04-.1-.04-.16,0-.05,0-.1.02-.15-.11-.07-.18-.16-.13-.25.02-.03.04-.04.06-.05-.05-.02-.09-.06-.14-.1h-.88s.05.07.06.11c.01.03,0,.13.02.15ZM238.88,168.08s.06,0,.06.02c.01.08-.14.03-.06-.02Z"/>
        <path class="cls-1" d="M244.06,173.31s.08-.03.08.02c-.02.03-.04.04-.06.03.01.03.02.05.04.07.02.02.07.05.11.08.02-.03.04-.07.07-.1.06-.08.12-.16.17-.23-.07-.1-.1-.24-.02-.36-.15.09-.31.17-.46.23,0,0,0,0,0,0,0,0,0,0-.01.01-.01,0-.02.03-.02.05.02.02.04.03.05.05.03.04.04.09.06.15ZM244.4,173.11s.01.03.04.05c-.02.05-.08,0-.08-.02.01,0,.03,0,.04-.03ZM244.25,173.19s0,.07-.01.08c.02-.02-.05-.05.01-.08Z"/>
        <path class="cls-1" d="M237.88,168.9c-.05.14.07.33.15.38.04.02.09.02.13.03.16.08.33.21.45.35.03.04.03.08.06.11.06.06.14.07.19.14.02.02.03.05.04.08.03-.1.07-.19.11-.29,0,0-.02-.01-.03-.02-.07-.05-.17-.14-.21-.16-.05-.02-.12-.02-.15-.04,0,0,0-.06-.02-.09-.01-.02-.07-.05-.11-.07-.04-.03-.08-.08-.1-.1-.04-.02-.18-.05-.23-.09-.09-.07-.2-.28-.28-.23,0,0-.01,0-.01,0Z"/>
        <path class="cls-1" d="M244.39,173.62s.02.08.06.09c.07.02.2-.13.23-.21.01-.03-.01-.05.01-.09.05-.08.1-.03.15-.05.03-.01.04-.04.06-.06v-.14s-.02.05-.04.07c-.06.06-.13.08-.2.07,0,0,0,0,0,.01.01.07-.11.18-.15.16-.05-.03-.01-.19.02-.21,0,0,0,0,.01,0-.02-.01-.03-.02-.05-.04-.08.11-.16.23-.22.33.04.03.08.05.1.08Z"/>
        <path class="cls-1" d="M243.86,174.01s0,0,0,0c-.04,0-.12.05-.16.06-.04,0-.08.01-.12.01.06,0,.15.02.2,0,.04,0,.07-.04.1-.07Z"/>
        <path class="cls-1" d="M241.56,170.85s.04.04.06.02c0,0,0,0,0-.01-.03,0-.05-.02-.08-.03,0,0,0,.02,0,.02h0Z"/>
        <path class="cls-1" d="M239.42,169.6s0,.05,0,.07c0,.06.02.12.03.18.06.04.15.07.2.1.06.04.23.19.28.17.07-.03-.02-.16-.06-.24-.09,0-.18-.11-.11-.23-.01-.02-.02-.04-.03-.06,0,0-.07-.15-.1-.16-.02,0-.04,0-.04.01-.02,0-.04.06-.06.07-.03.02-.07.05-.11.08Z"/>
        <path class="cls-1" d="M239.83,168.69s.02,0,.02,0c.02,0,.04.03.08.06-.01-.06-.02-.11-.04-.17-.02-.02-.04-.04-.06-.05,0,0,0,0-.01-.01.01.04.02.09.02.13,0,0,0,.02,0,.03Z"/>
        <path class="cls-1" d="M240.14,168.81s-.04-.06-.09-.09c0,.04,0,.08-.01.12.04.02.08.02.1-.02Z"/>
        <path class="cls-1" d="M239.5,170.07c.02.12.04.23.02.34,0,.04-.02.08-.03.11.1.03.21.05.28.1.09.06-.01,0-.02-.03-.04-.11.08-.11.11-.07.03.05-.03.1-.01.16,0,0,.04.02.07.05.03.04.1.12.14.19.01.02.03.05.04.07.04-.02.08-.04.12-.07,0,0-.02-.02-.01-.03-.18-.08-.32-.37-.1-.45,0,0,0,0-.01,0-.05.01-.08-.02-.1-.06-.06-.04-.13-.08-.19-.12-.04-.02-.21-.14-.3-.17Z"/>
        <path class="cls-1" d="M240.25,169.01s.05.09.1.15c0-.03.01-.06.02-.09-.01-.02-.03-.04-.05-.06-.02.02-.05.01-.08,0Z"/>
        <path class="cls-1" d="M240.22,168.79s.14-.08.14-.13c0-.13-.15-.03-.26-.06,0,0-.02,0-.02-.01,0,.02-.01.04-.01.06,0,0,0,0,0,0,.04.04.09.14.15.14Z"/>
        <path class="cls-1" d="M240.16,171.84c.01.05.04.1.06.15.02-.02.03-.04.03-.06,0-.02-.06-.07-.09-.09Z"/>
        <path class="cls-1" d="M242.41,170.61s0,.08.02.12c.05-.03.09-.06.13-.09,0,0,.02-.01.02-.02.03-.02.05-.03.08-.05.02-.02.03-.04.05-.06.02-.04.02-.08.09-.06.05,0,.05.07.09.09.03.01.07,0,.1,0,.02,0,.05.01.07.02,0-.02,0-.03-.01-.05-.12-.04-.27-.07-.38-.17-.02-.04-.03-.09-.05-.13-.05,0-.1,0-.15,0,0,.02,0,.04,0,.06.07.1.04.24-.04.34Z"/>
        <path class="cls-1" d="M238.87,171.35s.14.1.06.02c-.12-.12-.1-.19-.13-.36-.04-.18-.17-.13-.3-.23-.03-.02-.1-.14-.11-.13-.02.03.05.27.05.32.02.24.26.31.42.38Z"/>
        <path class="cls-1" d="M238.99,171.46c0,.12-.26-.08-.29-.11-.06-.06-.19-.2-.21-.17-.03.03.02.19.03.27,0,.09,0,.21.03.25.02.02.1,0,.15.03.06.03.04.1.1.12.08.02.23-.08.24.07,0,.05-.06.12-.11.15-.11.08-.32.21-.34.34,0,.03.02.09.02.13.02.17.02.43.05.65.01.09.04.31.07.37.02.04.14.14.22.21.09.08.19.14.26.19.12.09.22.19.32.28.14.11.28.2.44.31.07.05.19.14.26.13.14-.02.18-.4.2-.48.08-.3.13-.63.14-.89,0-.03,0-.1,0-.16-.22.18-.46.35-.69.38.01-.12.2-.21.29-.26,0-.02,0-.04,0-.06-.01.01-.02.02-.03.01-.02-.02-.03-.06-.02-.12,0-.01-.02-.02-.02-.04-.01,0,0,.02,0,.02.01.02,0,.01-.02,0-.02-.03-.02-.05-.03-.08-.05-.03-.09-.06-.12-.11-.1-.14-.08-.42-.04-.6.03-.12.11-.28.04-.33-.06-.05-.25.08-.35.08-.06,0-.1-.03-.15-.02,0,.01,0,.03,0,.04.04.01.08.04.1.09,0,.01,0,.03,0,.04.07.06.14.11.08.18,0,0-.02.02-.03.02.04.01.06.05.03.08-.08.1-.19-.06-.09-.09-.02-.01-.05-.03-.07-.05-.1.07-.26.09-.32-.04-.06-.14.09-.26.22-.26,0-.04,0-.07,0-.1-.05-.05-.11-.16-.1-.24,0,0,0-.01,0-.02-.07.06-.22-.05-.11-.13.06,0,.11.03.12.09.02-.05.06-.11.1-.17-.1.02-.22.01-.3-.01-.06-.02-.11-.09-.11-.02ZM239.9,173.86s-.08,0-.04-.04c.03-.03.06.02.04.04ZM240.15,174.04c.05.3-.44.25-.34.02.05-.13.26-.17.34-.02ZM239.79,172.41c.06,0-.1.09-.11.08-.02-.03.06-.08.11-.08ZM239.75,173.08s.03.06,0,.09c-.01.02-.03.02-.05.02h0s-.02,0-.03-.01c-.03-.02-.03-.06,0-.09.02-.03.06-.03.09,0ZM239.51,172.59c.05-.02.14.04.07.08-.03.02-.11,0-.09-.06,0,0,.01-.02.03-.02ZM239.25,173.1s.09-.04.1.05c0,.06-.22.2-.27.09-.03-.09.06-.14.17-.14ZM239.19,172.08c-.05.07-.16,0-.12-.08,0-.01.02-.02.03-.03.05-.02.11.06.08.1Z"/>
        <path class="cls-1" d="M239.56,168.3s-.03-.02-.05-.03c-.02-.01-.05-.02-.07-.03,0,0,0,.02,0,.02.03,0,.13.03.13.03,0,0,0,0,0,0Z"/>
        <path class="cls-1" d="M239.51,168.98s-.08-.02-.11-.04c0,.04,0,.08,0,.12.03-.02.07-.02.1-.06,0,0,0-.01.01-.02Z"/>
        <path class="cls-1" d="M238.45,170.41c0-.06-.09-.19-.13-.14,0,0,.01.02.01.02,0,0,.03.24.05.25,0,0,0-.04,0-.04,0-.02.06-.05.06-.09Z"/>
        <path class="cls-1" d="M240.47,174.68c.1-.11.21-.23.33-.3.02-.08.04-.17.06-.24.08-.24.37-.63.19-.85,0-.01-.02-.02-.03-.03-.07.07-.15.14-.19.17,0-.08.06-.16.12-.24-.07-.05-.15-.1-.23-.15-.01.01-.03.02-.04.04,0,0,0,0,.01,0,.05.03-.04.22-.04.25,0,.05.02.09.01.14-.03.28-.08.61-.13.89-.02.11-.05.22-.06.32Z"/>
        <path class="cls-1" d="M241.76,171.02s.01,0,.02,0c-.01-.03-.02-.06-.03-.09,0,.02,0,.06.01.09Z"/>
        <path class="cls-1" d="M241.43,174.85c.12-.07.34-.39.32-.53,0-.03-.02-.03-.04-.07-.04-.08-.08-.15-.11-.22,0,0-.01,0-.02,0-.06-.02-.04-.03,0-.04-.03-.05-.05-.1-.09-.15-.02.04-.05.08-.07.12-.06.1-.19.32-.2.41,0,.06.05.09.07.16.04.12.03.25,0,.37.07-.02.13-.04.15-.05Z"/>
        <path class="cls-1" d="M242.43,168.1c-.07.07-.12.15-.15.23.04-.04.08-.06.12-.08.01-.05.02-.1.03-.15Z"/>
        <path class="cls-1" d="M241.81,171.18s.07.06.15.1c0,0,0,0,.01-.01-.04-.01-.06-.02-.08-.04-.04-.04-.05-.08-.04-.12-.01-.01-.02-.02-.03-.03-.01,0-.02,0-.04.01,0,.04.02.07.03.09Z"/>
        <path class="cls-1" d="M241.76,168.07h-.17s.02.07.04.1c.04-.05.09-.07.13-.1Z"/>
        <path class="cls-1" d="M241.43,173.74c-.07-.11-.2-.32-.26-.29-.07.03-.08.29-.09.38-.01.16-.04.32-.08.49.02,0,.05,0,.07,0,.11-.19.23-.38.36-.58Z"/>
        <path class="cls-1" d="M241.05,171.65s.07.01.11.03c.1.05.18.17.28.23.03.02.21.11.22.11,0,0,.03,0,.06-.01.01-.07.02-.13,0-.21,0-.02-.02-.03-.02-.05,0-.01,0-.03,0-.04-.01-.05-.01-.09,0-.15,0-.03,0-.06-.03-.08,0,0,0,0-.01,0-.04.03-.09.06-.1.05-.02-.02.01-.05.05-.07-.01,0-.03,0-.04-.02-.07-.05-.15-.11-.23-.17-.16.27-.42.26-.56.12.01.06.19.21.27.25ZM241.43,171.4s-.01.08-.04.05c-.03-.03.02-.05.04-.05Z"/>
        <path class="cls-1" d="M240.7,171.25s0-.04,0-.06c0-.04.02-.09.04-.13-.07,0-.15.01-.21.09-.03.03-.07.08-.1.12.04.05.22.1.25.08.02-.01.03-.05.03-.09Z"/>
        <path class="cls-1" d="M241.29,169.54s.07-.03.08-.04c.07-.04.12-.1.17-.15,0-.02,0-.04-.01-.05,0-.01-.17-.12-.18-.11,0,0,.06.2.05.19-.03-.02-.03-.11-.04-.13-.02-.03-.1-.14-.17-.18,0,.01-.01.02-.02.03,0,0,0,0,0,0,.06.1.12.32.12.43Z"/>
        <path class="cls-1" d="M240.52,171.51c0-.09-.05-.16-.15-.15,0,0-.03.03-.04.03,0,0,0,0,0,0-.09.13-.16.26-.17.34h0c.02.08.14.17.15.17.06,0,.12-.07.17-.16-.04-.05-.05-.12,0-.18.01-.02.03-.04.05-.05ZM240.26,171.72c0-.15.2-.09.15.03-.05.03-.1.04-.15-.03Z"/>
        <path class="cls-1" d="M239.63,168.34s.06.03.08.05c0-.02-.02-.04-.02-.06-.01,0-.03,0-.05-.01,0,0-.02,0-.02.01,0,0,0,.01,0,.01,0,0,0,0,0,0Z"/>
        <path class="cls-1" d="M237.33,170.87c-.04.18.09.19.19.29.04.04.07.08.1.11.02,0,.04,0,.06.01.02.02.03.04.02.06,0,0,0,0,.01,0,.06.01.11,0,.13.01.03.03,0,.12,0,.21,0,.08.04.15.04.19.02.23-.1.32-.18.44-.03.05-.1.14-.1.19,0,.03.02.05.05.08.04-.04.11-.05.16-.01.05.04.06.12.02.17,0,0,0,0,0,0,0,0,0,.01.01.02.02.03,0,.05.02.06.05.05.17.1.19.13.04.03.19.26.27.25.05,0,.18-.36.07-.4-.07-.03-.16.13-.19,0-.03-.12.25-.22.28-.37,0-.05,0-.2-.06-.21-.05-.01-.18.12-.2.19-.01.04,0,.09,0,.13-.03.11-.18.15-.2.04-.03-.14.12-.16.17-.2.08-.06.13-.21.19-.33.02-.04.08-.11.09-.16,0-.07-.02-.19-.03-.31-.01-.12-.01-.23-.02-.3-.02-.11-.06-.11-.13-.17-.19-.16-.37-.33-.53-.47,0,0-.03-.03-.06-.05-.04.05-.1.02-.11-.03,0-.02.02-.03.03-.04-.06-.04-.12-.08-.15-.06-.02.01,0,0,0,.02-.03.15-.1.32-.14.5ZM238.08,172.07s.03.05,0,.08c0,0-.02.02-.03.02h0s-.03,0-.05,0c-.02-.02-.03-.05,0-.08.02-.02.05-.03.08,0ZM237.48,170.79s.04-.03.05-.02c.04.01.05.09,0,.11-.07.03-.08-.04-.05-.09Z"/>
        <path class="cls-1" d="M240.15,177s0-.12-.03-.07c-.05.05,0,.11.03.07Z"/>
        <path class="cls-1" d="M240.36,180.16s0,0,0,0c0,0,0,0,0,0,0,0,.01,0,.02,0,0,0-.01,0-.02,0Z"/>
        <path class="cls-1" d="M244.69,174.91s-.01-.02-.02-.04c0,.03,0,.06-.02.08.01-.02.02-.03.03-.04Z"/>
        <path class="cls-1" d="M237.87,248.92c-3.37,0-5.9-.74-7.58-2.21-1.68-1.47-2.53-4.26-2.53-8.35v-53.69h17.14v-3.59s-.07-.02-.09-.06c.01-.04.05-.06.09-.05v-1.03s0,0,0,0c-.2.08-.17-.29,0-.15v-4.17c-.13-.02-.1-.21,0-.21v-.42s0,0,0,0c-.03,0-.13,0-.18-.04-.01-.01-.02-.03-.03-.05-.03.04-.07.09-.08.07-.02-.03,0-.11.04-.18,0-.04,0-.07,0-.08,0,0,.02,0,.03,0,0,0,0,0,0,0,0,0-.02-.04-.01-.04.02,0,.02.02.02.05,0,0,0,0,.01,0,.08-.03.15,0,.2.06v-.1c-.14.05-.07-.15,0-.1v-.11s-.04-.03-.05-.03c-.06-.01-.11.01-.18.03,0,.03,0,.06-.01.08-.02.06-.07.19-.12.23-.03.03-.21.11-.26.12-.09.01-.19,0-.26-.02-.03,0-.09-.08-.15-.07-.07,0-.09.08-.15.1-.04.01-.1,0-.12,0-.04.02-.06.07-.08.13.02.14.05.29.07.43.05.33.15.71.22,1.05.02.09.04.18.06.26.03.14.1.26.11.4.01,0,.02,0,.04,0,.05.02.03.1,0,.14.05.13.09.25.17.39.12.21.42.51.09.67-.15.07-.34-.04-.38-.22-.03-.15-.01-.36-.03-.56,0-.05-.01-.11-.02-.16-.03.02-.06.05-.07.08-.02.06,0,.16-.01.25-.03.11-.13.2-.17.3-.07.18-.06.7-.36.49-.09-.06-.17-.32-.22-.43-.04-.07-.09-.11-.14-.16,0,.16.02.34.03.47.01.12.02.24.03.35,0,.04,0,.08.01.11,0,0,.01,0,.02,0,.23-.04.46.14.52.32.09.28-.07.59-.32.66.02.09.05.19.09.3.04.11.14.25.13.34-.01.18-.32.5-.49.28-.1-.13.03-.32.09-.48.05-.13.05-.27.04-.42-.03,0-.07,0-.1-.02-.06-.02-.11-.05-.16-.1,0,.02-.01.04-.04.06-.08.02-.13-.08-.06-.15,0,0,.01,0,.02,0-.07-.11-.12-.24-.11-.36.01-.18.13-.34.3-.4-.02-.16-.05-.32-.06-.48-.07.05-.22-.09-.09-.14.03-.01.06,0,.08,0,0-.09-.01-.18-.02-.28,0-.05,0-.09-.01-.14-.02-.02-.03-.04-.05-.07-.05-.08-.07-.19-.07-.29,0-.03-.04-.07-.04-.1-.03-.15.02-.39-.01-.62-.02-.14-.04-.28-.08-.42-.1.16-.31.29-.47.21-.38-.18-.02-.8.35-.67-.02-.05-.03-.11-.05-.16-.05-.18-.06-.34-.21-.38-.05-.01-.09,0-.14-.01-.16-.03-.35-.11-.47-.13-.09-.01-.18-.01-.27-.01.03.1-.09.23-.2.18-.07-.03-.08-.12-.07-.18-.05.04-.1.07-.16.1-.05,0-.09,0-.14,0-.02.02-.06.02-.09.05-.03.04-.05.18-.09.29-.18.56-.34,1.18-.53,1.71-.03.09-.04.19-.07.29-.03.09-.15.25-.14.33.02.14.24.13.17.33,0,.02-.09.1-.14.12-.06.02-.14,0-.2.03-.06.03-.11.19-.15.27-.11.22-.16.35-.3.53-.07.09-.17.16-.19.21-.03.08-.01.3.03.36.03.04.09.05.14.1.06.05.09.13.15.18.1.1.26.19.39.29.38.27.84.56,1.26.78.08.04.17.06.25.1.08.04.14.1.21.13.04.02.08.02.12.03.03.02.06.05.1.07.12.06.27.1.42.17.04.02.07.06.11.07.05.02.11.02.16.04.05.02.09.06.14.06.06.01.18-.03.19.07,0,0,0,.05-.02.06-.06.04-.08-.04-.17-.1-.05-.03-.11-.03-.17-.05-.08-.03-.16-.08-.24-.12-.22-.1-.43-.18-.64-.29-.13-.07-.27-.12-.38-.18-.04-.02-.06-.07-.1-.09-.07-.04-.15-.06-.22-.1-.29-.15-.58-.34-.86-.52-.23-.15-.49-.3-.79-.39-.1-.03-.21-.09-.29-.11-.16-.03-.26.07-.37.07-.36,0-.46-.39-.4-.7.02-.09.11-.19.11-.27,0-.09-.11-.17-.15-.22-.31-.41-.57-.87-.79-1.39-.05-.11-.09-.31-.17-.37-.03-.03-.11-.05-.15-.07-.28-.2-.46-.63-.23-1.04.06-.11.25-.31.45-.22.38.17.16.86.2,1.22.08.64.36,1.32.78,1.79.05.05.14.17.19.18.05.01.13-.03.2-.02.08,0,.15.06.21.1.1.06.19.13.32.06.14-.07.26-.28.36-.44.12-.18.17-.33.26-.53.04-.09.1-.17.14-.27.07-.18.13-.39.2-.59.04-.1.09-.19.12-.28.08-.25.12-.42.2-.7.03-.1.08-.22.13-.36.04-.12.12-.33.07-.37-.04-.04-.25.13-.39.07-.06-.02-.1-.07-.13-.13,0,0-.02.02-.03.03.05.09-.06.21-.16.15-.01,0-.03-.02-.03-.03-.06.01-.12,0-.18-.05-.05-.04-.08-.13-.08-.19.01-.14.14-.51.32-.68.08-.08.17-.13.26-.14-.09-.06-.2-.12-.25-.16-.21-.17-.42-.36-.64-.53-.06-.05-.13-.09-.18-.13-.05-.05-.1-.21-.19-.2,0,0-.11.08-.12.1,0,0-.01.02-.02.03.01,0,.02,0,.03,0,.07.03.05.1,0,.14-.06,0-.09-.02-.1-.05-.05.07-.1.13-.24.12-.3-.03-.2-.41-.12-.59.04-.09.12-.24.11-.29-.01-.06-.08-.05-.13-.09-.03-.02-.09-.08-.14-.13-.1-.09-.17-.17-.27-.26-.03,0-.07,0-.09-.02-.04-.03-.05-.07-.04-.12-.06,0-.11.13-.18.07-.07-.05.05-.11.04-.2,0-.04-.09-.13-.16-.2-.06-.06-.11-.19-.17-.19-.08,0-.04.13-.05.22-.02.13-.06.26-.09.41-.05.36-.09.67-.15,1.02-.01.08-.02.16-.03.22-.01.1-.02.26-.01.36.01.08.07.15.09.22.02.09.03.2.02.3-.02.19-.18.41-.32.44-.11.02-.18-.08-.34-.06-.14.01-.3.14-.35-.03-.06-.21.21-.27.33-.37.04-.04.06-.1.12-.17.08-.1.27-.2.33-.32.06-.12.06-.31.09-.46,0-.04.04-.09.04-.13.03-.19.02-.39.05-.59,0-.04.03-.07.04-.12.05-.21.03-.47.05-.69.01-.14.08-.33.06-.45-.01-.08-.11-.15-.17-.22-.06-.07-.11-.17-.15-.23-.06-.1-.11-.19-.16-.28-.03-.02-.04-.04-.04-.07-.11-.21-.2-.41-.31-.67-.04-.1-.09-.21-.13-.32-.06.02-.15,0-.15-.05,0-.05.06-.08.12-.07-.02-.12-.03-.24,0-.38.09-.31.47-.29.58-.58.06-.16-.21-.24-.07-.43.04-.05.15-.09.22-.1.11,0,.23.03.23-.1,0-.11-.16-.19-.26-.25h-9v-23.82h-22.47v23.82h-15.88v16.6h15.88v45.02c.19.41.22,1.15.1,1.52-.02.06-.05.14-.1.21v8.47c0,.54,0,1.06.02,1.59.07.04.12.11.13.2.02.17-.04.26-.12.29.05,1.3.14,2.54.28,3.73.05-.49.16-1.1.37-.99.12.06.08.3.08.4,0,.34-.02.69-.02,1.02,0,.34-.02.69-.07,1.03-.01.07-.06.2-.11.35.45,2.81,1.17,5.31,2.17,7.5.1-.03.21-.04.31,0,.31.1.5.46.51.76,0,.24-.09.35-.21.46.72,1.35,1.56,2.57,2.52,3.65-.03-.06-.04-.13.02-.19.02-.02.07.17.06.28.3.33.6.65.92.96.87.83,1.82,1.56,2.81,2.24-.01-.37.61-.5.57-.07-.1.17-.21.22-.33.23.18.12.36.26.55.37.34-.32.62-.88,1.04-1.15.11-.07.28-.08.38-.15.26-.17.28-.37.61-.38.06,0,.09.06.15.04.37-.12.76-.87,1.07-.42.04.06.23.12.23.11.2.29-.06.47-.04.53.08.3.4.19.76.23.07,0,.16.15.27.08-.1.07-.05-.6.11-.69.13-.07.13.18.15.19.11.03.24-.25.3-.3,0,0-.01,0-.02.01,0,0,.01,0,.02-.02,0,0,0,0,0,0,.06-.04.16-.08.16,0,0-.11-.35-.27-.38-.38-.11-.4.24-.72.5-.76.41-.08.92.16,1.37.15.13,0,.22-.12.49-.08.14.02.19.25.46.15.12-.04.12-.37.38-.27.14.06.03.38.19.46.28.14.21-.09.34.15.1.17.85.65.99.57.21-.11-.11-.33.08-.5.06-.05.35-.21.42-.27,0,0,.07-.12.08-.11-.01,0,.15.32.15.34,0,.14-.16.34-.27.42-.24.2-.52.18-.34.76.05.18.25.28.27.46.03.27-.24.61-.3.84-.12.41-.78,1.13-1.11,1.49-.24.27-.54.41-.57.69-.02.22.22.47.19.61-.02.09-.14.17-.27.24,2.26.48,4.69.75,7.32.75,5.41,0,10.29-.72,14.62-2.17v-17.33c-2.71.6-5.27.9-7.67.9ZM243.8,175.75c-.06-.04.02-.15.05-.16.15-.05.06.22-.05.16ZM244.7,184.07s-.05-.02-.08-.05c-.02-.14.22-.07.08.05ZM244.74,178.62s-.03-.05,0-.08c.02-.02.05-.03.08,0,.02.02.03.05,0,.08-.02.02-.05.03-.08,0ZM244.59,175.88c-.15-.08-.12-.42.12-.32.26.11.05.41-.12.32ZM244.33,176.99s-.07-.13-.07-.18c-.01-.12,0-.27.1-.28.15-.02.02.46-.02.46ZM244.54,175.12c.11-.02.24.04.23.17,0,.07-.09.13-.12.14-.21.05-.39-.27-.12-.31ZM243.83,179.61c-.09,0-.1-.07-.1-.14.1-.1.25.07.1.14ZM243.79,178.16s-.04.05-.06.06c-.03-.02-.04-.04-.05-.07.03-.07.09-.05.11,0ZM243.33,182.09s.09.04.06.07c-.02.04-.06.02-.09-.01.02-.02,0-.04.03-.06ZM243.2,181.03s-.05,0-.08,0c-.22-.2.28-.23.08,0ZM242.21,175.58c-.03.08-.09.12-.17.05-.02-.1.13-.18.17-.05ZM239.66,178.89s-.05-.05,0-.09c.05.02.03.05,0,.09ZM239.81,179.56c-.14-.04.08-.13,0,0h0ZM240.19,180.17s0,.09-.03.12c.02-.01-.01-.07-.01-.04,0-.03.05-.13.06-.07,0,0-.02.05-.02,0ZM240.3,180.04s.02-.03.02-.03c.07-.04.02.1-.02.03ZM240.39,180.21s-.03-.02-.04-.04c0,0,0,0,0,0,0,0,0,0,0,0,0,0,0-.01,0,0,.01-.01.02-.04.02-.04.07,0,.02.08.01.08ZM240.54,177.48c.06-.03.12,0,.13.06.01.19-.29.02-.13-.06ZM240.74,175.45c.05,0,.06.07.01.09,0,0,0,0-.01,0-.05,0-.09-.1,0-.09ZM240.78,180.28c-.08-.01-.08-.13,0-.15.13-.03.1.17,0,.15ZM240.91,175.96s0-.04.01-.04c.04-.04.02.08-.01.04ZM241.82,179.17s.11.08.04.09c-.04,0-.08-.04-.04-.09ZM241.81,179.55s.03.06,0,.09c-.01.02-.03.02-.05.02,0,0,0,0,0,0,0,0,0,0,0,0-.01,0-.02,0-.03-.01-.03-.02-.03-.06,0-.09.02-.03.06-.03.09,0ZM241.57,175.81s-.07.03-.04,0c.01-.01.03-.02.04,0ZM241.39,177.65c-.06,0-.07-.07-.02-.1.09-.05.09.09.02.1ZM241.5,177.99s-.05-.07-.04-.11c.04-.08.14,0,.14.05-.03.05-.06.06-.09.06ZM241.67,176.74s-.08.03-.13,0c-.02-.07.08-.15.15-.06,0,.02,0,.04-.01.07ZM241.83,179.74c.12.03.17.17.07.25-.2.18-.32-.32-.07-.25ZM241.87,180.65s.11.01.09.07c-.03.07-.17-.02-.09-.07ZM242.36,177.74s-.04-.11-.01-.13c.09-.07.12.16.01.13ZM242.55,180.37s-.04-.08-.01-.11c.03-.03.08-.04.11-.01.03.03.04.08.01.11-.03.03-.08.04-.11.01ZM239.97,176.11s.06.03.02.07c-.03-.02-.05-.05-.02-.07ZM240.05,176.64c-.1.25-.23-.2,0,0h0ZM239.7,176.81c.27.11,0,.4-.15.29-.14-.1-.05-.37.15-.29ZM239.46,176.55s-.04.04-.06.05c-.04-.02-.02-.04-.05-.06l.04-.05s.07.03.07.06ZM239.41,175.14s-.1,0-.08-.04c.02-.06.12-.02.08.04ZM238.88,177.22s.05.05.02.07c-.04,0-.06-.04-.02-.07ZM238.43,175.08s.02,0,.02,0l.02.02s0,.02,0,.02l-.02.02s-.02,0-.02,0l-.02-.02s0-.02,0-.02l.02-.02ZM238.48,176.64c.13.03.12.09.08.16-.11.24-.35-.22-.08-.16ZM238.24,174.13s.02,0,.02,0c.07-.03-.06.08-.02,0ZM237.69,174.91s0-.04-.03-.06c.05-.07.12-.04.13.03-.03.03-.07.04-.1.03ZM237.95,178.05s.04-.02.05,0c.03.06-.1.05-.05,0ZM238.01,176.24c-.18.12-.11-.23,0-.03-.01.01-.01.02,0,.03ZM238,175.62s-.08-.06-.04-.09c.03.02.07.02.07.06l-.03.04ZM238.02,174.92c-.08.03-.21-.15-.07-.2.14-.06.17.17.07.2ZM237.79,173.35s0,0,0,0c.01-.03.04-.05.06-.06,0-.02-.03-.02.02-.05-.02.01.04-.04.06,0,.01.02,0,.03,0,.04.01,0,.02,0,.03,0,.02-.08.15-.08.16.02-.01.02-.03.04-.05.04.01.02.02.04.02.06-.02.13-.24.11-.3.02,0,0,0,0,0,0-.06-.01-.03-.04,0-.07ZM237.1,173.28s.14.01.19.04c.1.06.19.18.32.23.08.03.17.02.25.05.08.04.22.18.2.25-.03.09-.2.04-.26.01-.1-.05-.15-.16-.23-.21-.09-.06-.19-.08-.32-.13-.08-.03-.31-.16-.15-.25ZM236.96,175.87c-.06.03-.12-.04-.1-.08.03-.08.18-.01.1.08ZM236.58,177.7c.19-.05.19.28.03.28-.13,0-.19-.24-.03-.28ZM236.46,171.82c.21-.09.41.17.26.33-.17.19-.56-.07-.26-.33ZM236.11,173.88c.14-.02.08.31-.05.27-.11-.03-.03-.25.05-.27ZM229.46,169.71c-.07-.01-.14-.07-.13-.15.02-.23.36-.06.28.09-.03.05-.09.07-.15.06ZM234.09,176.04s-.04-.03-.03-.04c.04-.04.07.04.03.04ZM234.17,173.5c.11-.01-.02.19-.06.13-.03-.05.01-.12.06-.13ZM234.21,177.48s0-.08.03-.1c.1-.03.05.16-.03.1ZM235.1,172.86c.11-.11.26.04.23.17-.13.24-.38-.02-.23-.17ZM235.5,169.54c.12-.02-.01.13-.06.07-.04-.04.05-.07.06-.07ZM235.14,170.48c-.16,0-.33-.08-.32-.29,0-.16.13-.23.28-.26.49-.09.52.57.04.54ZM234.9,168.72c.05,0,.11.02.13.04.11.13-.1.37-.25.21-.09-.1,0-.25.12-.26ZM234.85,169.48s.01,0,.02-.01c.28-.02.31.42.1.48-.32.08-.44-.41-.12-.47ZM234.6,176.03c-.2.03-.56-.21-.49-.49.01-.06.07-.12.16-.14.3-.07.76.56.33.63ZM234.42,173.63s-.02-.09.04-.12c.22-.09.06.27-.04.12ZM234.6,174.67s-.03,0-.04.03c-.04-.03-.07-.05-.03-.08.03,0,.07.03.07.06ZM233.69,169.04s.1-.03.16-.05c.09-.04.11-.05.2-.06.31-.03.54.19.56.47.04.41-.38.82-.75.71-.15-.04-.18-.15-.26-.31-.04-.1-.11-.14-.11-.28,0-.12.1-.42.18-.48ZM233.32,168.12c.1-.04.13,0,.14.06.05.23-.37.02-.14-.06ZM233.27,173.19c.01-.07.05-.12.06-.17,0-.03,0-.07,0-.11.01-.06.05-.11.07-.18.02-.06.02-.14.04-.2,0-.03.04-.04.05-.06.07-.16.12-.35.19-.47.02-.04.07-.07.1-.11.03-.04.08-.07.1-.11.02-.04,0-.11.06-.14.03,0,.07-.02.09.01.04.07-.08.11-.11.13-.09.08-.1.17-.15.27-.02.03-.06.05-.09.09-.05.09-.16.39-.2.53-.07.27-.15.57-.22.86,0,.03-.08.36-.07.11,0-.1.05-.32.07-.45ZM233.2,173.78s0,0,0-.01c.05-.03,0,.15-.02.13-.02-.02.02-.12.02-.12ZM232.93,168.45c-.02.06-.14,0-.12-.06.02-.07.15-.02.12.06ZM232.7,172.18c.03-.06.13-.05.18.04-.04.14-.23.05-.18-.04ZM232.73,175.06c.04-.1.1-.21.16-.31.04-.07.06-.12.11-.22.03-.07.03-.12.06-.22.01-.04.05-.09.06-.12.02-.06,0-.11.02-.13.03-.03.01.13.01.13,0,.06.03.22.03.32,0,.06-.02.13-.02.19,0,.16.01.39-.03.58,0,.03-.04.05-.04.07,0,.02.02.08.01.11,0,.03-.04.06-.05.11-.04.13-.17.32-.37.18-.19-.13-.01-.53.05-.68ZM232.42,170.82c0,.09-.09.19-.16.19-.09,0-.2-.11-.27-.17-.05-.04-.2-.12-.18-.26,0-.08.07-.11.13-.12.14-.03.23.06.33.15.05.05.15.15.15.2ZM231.73,168.42s.06-.05.1-.07c.07-.04.2-.01.19.04,0,.01-.02.03-.05.05-.05.03-.13.03-.19.04-.03,0-.19.05-.17-.02,0-.03.1-.03.12-.04ZM228.61,169.49c.15-.05.29-.12.44-.16.14-.04.29-.09.43-.15.07-.03.12-.06.21-.09.1-.04.24-.05.35-.11.1-.05.17-.11.26-.13.06-.01.12,0,.18-.01.1-.02.23-.07.33-.11.06-.02.11-.06.16-.08.08-.03.18-.03.27-.07.06-.02.12-.05.18-.07.06-.02.1-.01.11,0,.01.02,0,.05-.06.09-.1.06-.22.07-.33.12-.08.03-.16.06-.25.09-.06.02-.2.04-.24.08-.04.04-.12.08-.18.08-.17.12-.36.13-.53.18-.1.03-.21.05-.31.08-.13.04-.26.09-.38.13-.07.03-.15.05-.22.08-.04.02-.08.03-.11.04-.07.03-.12.06-.19.08-.06.02-.32.18-.35.02-.01-.07.2-.1.25-.12ZM206.51,242.04c.82-.21.83.93.3,1.06-.64.15-.99-.88-.3-1.06ZM206.93,248.16c-.29-.21-.17-.46-.08-.71-.09-.28-.29-.53-.15-.77.37-.61,1.26.14.66.71.12.27-.04.82-.44.77ZM207.56,250.26c-.06-.03-.06-.17,0-.23.17-.2.2.34,0,.23ZM207.75,243.85c-.1.01-.25-.11-.12-.22.1-.01.25.11.12.22ZM208.52,253.2c-.25.21-.78-.35-.27-.53.25-.09.51.33.27.53ZM222.81,253.05c.14-.14.17.21,0,.15-.06-.02-.05-.1,0-.15ZM217.02,259.14c-.17-.02-.33-.12-.29-.3.2-.32.61.05.29.3ZM213.58,234.91c.08-.06.18-.04.21.03.12.28-.47.17-.21-.03ZM213.53,247.51s-.07-.04-.1-.02c-.45-.47.64-.53.1.02ZM212.9,255.64c-.48-.03-.64-.77-.19-.99.76-.37,1.07,1.04.19.99ZM213.04,253.98c-.12.04-.22.15-.36,0-.06-.17.08-.34.26-.32.17.09.06.21.1.32ZM212.8,233.45c.1-.03.2-.03.24.09.19.58-.79.1-.24-.09ZM212.67,251.43c.19.1.03.34-.11.14l.11-.14ZM212.5,254.07c-.08.15-.18.11-.29,0,.11-.19.23-.13.29,0ZM209.14,231.67c-.1-.15.02-.18.09-.21.31-.15.11.49-.09.21ZM210.07,248.44c-.15.26-.32.28-.52.06-.09-.39.52-.45.52-.06ZM209.89,250.13c-.35-.73.84-.16,0,0h0ZM211.07,251.18c.11-.05.25-.05.27.12.03.42-.62.06-.27-.12ZM211.66,249.61c-.51-.06-.55-.72-.19-.86.49-.19.79.73.19.86ZM212.22,227.01c.07-.02.21,0,.21.15,0,.43-.64-.04-.21-.15ZM212.54,260.54c-.5-.13-.6-.57-.32-.85.55-.55,1.26.63.32.85ZM213.55,256.29c.23-.07.39.01.38.27-.02.72-1.04-.06-.38-.27ZM214,250.37c.17-.4.74-.39.86.1-.09.77-1.08.41-.86-.1ZM215.57,257.02c-.49.46-1.31.02-1.3-.57,0-.36.34-.65.72-.69.5-.05,1.13.74.57,1.26ZM214.38,253.93c-.23-.23-.5-.78.03-1.28.17-.16.57-.31.93-.13,1.27.63-.15,2.2-.96,1.41ZM215.51,251.45c.14-.06.27.13.15.21-.12.08-.34-.13-.15-.21ZM215.42,227.07c-.64.08-.71-1.01-.18-1.15.84-.22.71,1.08.18,1.15ZM217.4,261.75c-.2.44-.77.62-1.14.38-.74-.46-.15-1.86.78-1.26.34.22.49.57.35.88ZM218.24,259c-.33.28-.77-.34-.27-.46.15-.03.25,0,.3.08.03.05.02.33-.04.38ZM218.77,260.76c.06.03-.03-.19-.04-.11.04-.3.27.22.04.11ZM220.49,260.48c-.14.14-.39.27-.54.28-.15.02-.98-.18-1.07-.31-.03-.05.05-.3-.04-.42-.12-.17-.39-.2-.38-.5,0-.22.15-.33.38-.38.09-.02.99-.05,1.1,0,.17.07.29.51.38.74.34-.2.69-.37,1.1.08.16.65-.52.77-.94.5ZM220.25,253.93c.1-.07.25-.09.31,0,.31.46-.7.27-.31,0ZM221.06,257.79c-.34.15-.72-.31-.59-.59.28-.58,1.32-.09.59.59ZM220.48,257.74c0,.15-.25.4-.31.42-.45.12-.85-.65-.23-.8.3-.08.55.07.53.38ZM220.35,253.72c-.31.32-.53.69-.7,1.09-.07.16-.14.33-.21.48.06,0,.12.02.18.04.62.25.25,1.21-.31,1.05-.2-.06-.31-.22-.35-.41-.44.35-1.65.76-1.79-.11-.08-.5.42-1.08.75-1.33.31-.23.71-.37,1.09-.64.59-.42,1.16-1.19,1.69-1.72.33-.34.73-.95,1.27-.91.26.02.21.37.09.6-.24.51-1.06,1.17-1.72,1.85ZM222.39,260.38c-.27.07-.42-.4-.19-.53.34-.2.42.47.19.53ZM222.73,259.61c-.21-.15.04-.43.15-.46.46-.13.1.64-.15.46ZM223.49,260.22c-.13-.13.29-.24.42-.23.42.02-.29.36-.42.23ZM223.23,253.85c-.45-.34-.14-1.09.5-1.07.23,0,.49.14.53.46.09.61-.6.94-1.03.61ZM224.87,253.63c.08-.03.28.03.18.18-.08.12-.41-.09-.18-.18ZM224.68,259.8c-.12-.13.12-.14.15-.15.58-.22.06.38-.15.15ZM225.29,264.65c-.12-.01-.12-.03-.07-.05-.05,0-.11-.04-.17-.1,0-.04.02-.09-.01-.13.14-.29.44-.08.37.12-.02.03-.05.06-.07.08.13-.03.32-.04.41-.03.18.02-.31.13-.46.11ZM227.27,259.12c.12-.03.27-.03.42-.04.15,0,.43-.08.46.08.04.25-1.89.19-.88-.04ZM227.08,265.11c.09-.18.45.06.42.15-.06.16-.42-.14-.42-.15ZM227.61,264c-.12,0-.1,0-.11,0-.29.19-1.64.21-.88,0,.12-.03.18-.01.46-.04.23-.02.81.02.53.04ZM228.11,263.89s.28-.11.34-.11c.46-.03-.3.22-.34.11ZM229.25,255.65c.52-.15.5.77.06.73-.28-.03-.39-.63-.06-.73ZM229.19,261.01c.18-.1.34.14.21.27-.13.13-.48-.13-.21-.27ZM230.32,264.8c-.4.58-1.43-.45-.65-.76.32-.13.66.04.72.31.02.11-.06.43-.08.46ZM232.41,256.94c-.07-.15.19-.16.31-.19,0,0,.01,0,.02,0,.02-.02.35-.15.4.04.06.22-.68.25-.72.15Z"/>
        <path class="cls-1" d="M236.87,170.09c-.15.02-.36.11-.37.26-.02.18.03.38.11.56.05-.03.11-.01.14.11l-.06.07c.06.11.11.21.15.28.04.07.14.29.2.29.09,0,.07-.22.1-.34.01-.06.06-.1.04-.17-.02-.08-.18-.14-.22-.31-.03-.11-.02-.16-.05-.2-.04-.05-.21-.08-.2-.15,0-.04.04-.05.05-.05.06-.01.25.11.3.19.03.06.03.16.07.19.17.14.19-.22.21-.33.01-.05.07-.15.05-.19-.01-.05-.22-.15-.23-.15-.06,0-.04.1-.1.09-.07-.01,0-.09-.05-.13-.03-.02-.11,0-.14,0Z"/>
        <path class="cls-1" d="M236.96,168.07h-.1s.07.06.09.05c.01,0,.01-.03.02-.05Z"/>
        <path class="cls-1" d="M221.21,262.36c.23,0,.11-.3-.04-.5-.03-.04-.12.04-.11.04,0,0-.03.14-.04.15-.1.15-.35.12-.46.23-.2.21.14.23.23.23-.1,0,.28-.15.42-.15Z"/>
        <path class="cls-1" d="M237.29,171.18s-.02,0-.02.02c-.02.18-.09.43-.1.59,0,.15.11.25.19.35.05.06.15.2.21.18.09-.02.13-.4.11-.53-.02-.12-.09-.22-.11-.3,0-.03,0-.06,0-.07-.03-.09-.22-.28-.29-.23Z"/>
      </g>
      <g>
        <path class="cls-1" d="M157.38,260.48c0-.08,0-.14.04-.17-.49.35-.97.68-1.53.36-.33,1.99-2.87,2.25-3.91,1.01-.28-.33-.42-.71-.44-1.09-.03-.02-.06-.04-.09-.06-.02.05-.05.09-.1.14-.3.26-.94-.01-.84-.44.01-.04.03-.09.06-.13.14-.17.44-.14.66-.01-.02-.24.12-.49.5-.58.02,0,.03,0,.05,0,.26-.46.7-.83,1.27-.97.33-.08.71-.07,1.04,0,.12.03,1,.47,1.02.46.6-.45,1.23-.63,1.95-.01-.08-1.3,2.05-.83,1.64.27,0,0,.02,0,.03,0,.8-.77,1.56-1.58,2.29-2.45l.1,1.82c.33.25.62.57.82.88.42.65.6,1.48,1.08,2.08.02.03,1.2-.26,1.44-.2.08.02.95.43.98.38.24-.48-.14-.64.04-1.03.28-.62,1.08-.55,1.52-.17.25.22.39.46.31.8,0,.04-.32.62-.39.54.17.18.28.36.55.53.67,1.11-.77,2.55-1.88,2.11-.88.81-2.11.7-3.02-.31-.25-.05-.47.19-.69.42-.13.07-.27.12-.41.15l.09,1.6h.18c.04-.28.43-.48.75-.32.19.09.27.21.28.32h3.55c-.09-.17-.13-.38-.08-.7.06-.35.59-.58.84-.76.28-.21.45-.49.71-.71.59-.5,1.69-.59,2.38-.23.66.35,1.23,1.01,1.5,1.72.17-.01.36.01.54.1.3.14.56.35.74.59h.41c-.02-.39.53-.42.58-.06l-.05.06h6.43c.06-.39.11-.77.14-1.15.04-.5-.05-1,.03-1.47.11-.71.59-1.34,1.1-2.26.12-.22.57-1.13,1.05-1.44v-1.61c-.15.12-.35.21-.45.37-.41.64.21,1.88-.89,2.2-1.5.18-3.06-2.37-2.34-3.57.24-.41.72-.48.99-.79.47-.54.36-1.21.9-1.67.25-.09.52-.01.77-.08.32-.46.16-.87.54-1.33.15-.05.31-.02.47.06v-3.45s-.01-.01-.02-.03c-.04-.08-.02-.14.02-.19v-80.7h-22.44v69.56c-3.65,7.36-10.65,11.04-21,11.04-4.55,0-8.21-1.36-10.99-4.08-2.78-2.72-4.17-7.26-4.17-13.6v-62.92h-22.35v62.74c0,12.39,2.84,21.51,8.53,27.37,5.68,5.86,13.55,8.8,23.6,8.8s17.53-2.57,23.54-7.71ZM166.58,257.42c-.6-.06-1.31-1.38-.36-1.63.22-.06.31-.08.45-.05.63.14,1.04,1.78-.09,1.68ZM166.59,252.32l.16.13c-.07.13-.15.11-.23.17-.08-.09-.05-.19.06-.3ZM171.51,264c-.3-.16-.31-.36-.35-.55.27-.36.62-.32.84.06-.06.22-.27.51-.49.49ZM178.28,257.91c-.08.17-.28.23-.44.19-1.17-.27.93-1.16.44-.19ZM176.94,260.93c.36-.14.72.51.23.46-.2-.02-.54-.34-.23-.46ZM176.43,235.63c.25.11.43.31.27.55-.5.78-1.35-1.04-.27-.55ZM175.81,248.22c.72-.23,1.05.81.59,1.13-.71.49-1.44-.86-.59-1.13ZM175.45,256.2c.28-.2.42.45.23.54-.27.13-.43-.39-.23-.54ZM174.29,258.08c.18-.27.82,0,.75.25-.02.07-.09.15-.25.21-.35.14-.74-.1-.5-.47ZM173.37,258.95c-.36.66-.95.35-1.04-.13.3-.73,1.03-.37,1.04.13ZM169.31,259.41c-.05-.08-.1-.18-.12-.29-.09-.4-.18-.8.16-1.12.8-.75,2.61.46,2.48,1.45.04,0,.09,0,.13,0,.34.04.92.24,1.13.41.22.17.2.4.45.41.32.01.5-.37.77-.45.74-.22,1.59-.18,1.86.45.21.5.08,1.28-.09,1.68-.32.73-1.25,1.24-1.63,1.72-.35.45-.72,1.98-1.22,1.9-.45-.06-.27-.53-.12-.92,0,0,0,0-.01,0l-.27-.22c.04-.1.03-.2.07-.3.15-.15.28-.16.38-.1.07-.59.03-1.43-.45-1.54-.19-.05-.96.1-1.22.05-.7-.15-1.41-.73-2.13-1-.03-.01-.06-.02-.09-.03-.35.48-.92.06-.86-.33-.45-.22-.81-.53-.77-1.08.02-.26.33-.58.77-.68.27-.06.52-.04.79,0ZM163.73,246.64c.06-.23.19-.62.32-.95.21-.56.31-.94.77-1.04.31-.07.85.13,1.04.32.31.3.33.92.59,1.04.22.1.67-.14.99-.09,1.2.17,1.13,2.23-.32,1.63-.25-.1-.32-.39-.59-.41-.59-.05-1.1,1.2-1.18,1.77-.09.72.23,1.96-.63,1.99-.7.02-.68-.92-.82-1.86-.09-.63-.38-1.61-.18-2.4ZM162.76,256.75l.22.17c-.07.13-.15.11-.23.17-.15-.1-.12-.22.01-.34ZM151.05,263.06c-.23.42-.66.22-.7-.12.2-.43.7-.23.7.12ZM138.76,263.49c.36.22.31.49.18.76-.72.45-1.03-.92-.18-.76Z"/>
        <path class="cls-1" d="M182.08,261.95c-.32.49-.3,1.31-.58,2.02-.22.59-.6,1.14-.79,1.74-.07.22-.12.46-.17.69h2.12v-5.01c-.24.22-.47.42-.58.57Z"/>
      </g>
    </g>
  </g>
</svg>