<?xml version="1.0" encoding="UTF-8"?>
<svg id="Layer_2" xmlns="http://www.w3.org/2000/svg" viewBox="0 0 630.49 421.09">
  <defs>
    <style>
      .cls-1 {
        fill: #1a134b;
      }
    </style>
  </defs>
  <g id="logo">
    <g>
      <path class="cls-1" d="M435.02,65.36c-.79-.5-1.57-.97-2.36-1.44-.08,1.52-.28,3.31-.12,4.18.27.12.57.19.95.15.96-.09,1.58-1.93,2.59-2.22-.13-.09-.26-.17-.39-.25-.43.38-.86.72-1.13.91-.11.08-.66.25-.71,0-.06-.28.59-.83,1.18-1.34Z"/>
      <path class="cls-1" d="M431.09,63.03c-.27-.15-.55-.3-.82-.45.06.18.24,1.07.52,1.06.14,0,.23-.27.3-.61Z"/>
      <path class="cls-1" d="M446.14,73.98c-.45-.44-.93-.86-1.4-1.29-.08.26-.28.4-.51.49.06.51.27,1.21.22,1.95l1.62-.42c-.01-.24,0-.48.08-.73Z"/>
      <path class="cls-1" d="M421.98,63.28s-.09.02-.14.04c-.21.19-.34.37-.32.52.06.52.62.63,1.14.82.25-.19.42-.41.39-.66-.05-.42-.55-.77-1.08-.72Z"/>
      <path class="cls-1" d="M463.29,270.19l-26.71,117.94-76.72-25.15-30.84-75.11,30.28-73.99c-3.25-1.84-6.54-3.9-9.71-5.97-3.09-2.01-6.55-4-10.54-5.27-.77-.25-1.58-.62-2.32-.93l-21.49,52.51L236.59,62.02l-23.46-6.15c-.08.02-.15.04-.23.06-1.7.53-3.45,1.18-5.13,1.77-.99.35-1.99.67-2.93,1.1-.5.23-1.02.35-1.53.54-.92.36-1.61.74-2.59,1.02-.85.24-4.21,2.45-4.63.33-.19-.97,2.68-1.34,3.3-1.57,1.96-.71,3.86-1.56,5.86-2.17,1.7-.52,3.48-1.13,5.22-1.78L0,0l105.25,244.97h79.44s0,0,0,0h2.19l-10.39-25.5h-54.45L44.04,37.9l173.77,45.55,83.66,204.41-30.84,75.11-76.72,25.15-26.71-117.94h-26.15l34.18,150.9,114.52-37.54,25.5-62.1,25.5,62.1,114.52,37.54,34.18-150.9h-26.15ZM212.72,61.25c-.4.72-1.21.96-1.98.83-.99-.17-1.91-.91-1.79-1.97.33-3.04,4.84-.79,3.77,1.14ZM260.3,128.74c-.12,2.19.14,5.18-.43,7.7-.1.42-.52.7-.57,1-.06.32.21,1.11.14,1.42-.08.35-.5.8-.71,1.43-.59,1.75-2.32,4.26-4.98,2.42-2.5-1.72-.19-7.03.71-9.13.57-1.33,1.35-2.8,2.14-4.14.58-1,.87-1.57,1.43-3,.38-.99.46-1.56.85-3,.16-.6.73-1.16.85-1.57.24-.81-.02-1.46.28-1.71.41-.34.15,1.78.15,1.71-.01.8.44,2.91.43,4.28-.01.79-.24,1.68-.29,2.57ZM274.25,165.97c-.59-.44-.03-1.13.43-1.28,1.39-.46.73,2.14-.43,1.28ZM464.2,298.5c1.03-.94,1.96.75,1.9,1.53-.55.05-1.74-1.05-1.9-1.53ZM467.31,281.65c-.33.04-.7-.28-1.08-.61,0-1.16,1.43-1.24,1.72-.19l-.64.79ZM473.91,300.06c.63-1.07,1.26.05,1.36.58-.67.3-.86-.03-1.36-.58Z"/>
      <path class="cls-1" d="M419.16,78.17c1.2.11,2.41.23,3.62.35.22-.85.4-1.69.55-2.5-.93.31-1.84.22-2.99.2-.32.65-.71,1.29-1.18,1.95Z"/>
      <path class="cls-1" d="M384.43,117.03s.04-.02.06-.02c-.18-.61-.35-1.24-.52-1.76-.1.52-.28,1.01-.57,1.47.07.17.14.35.23.52.37-.08.67-.15.81-.21Z"/>
      <path class="cls-1" d="M429.71,63.1c-.73-.19-2.83,1.71-4.31,2.34-.84.37-1.31.09-1.7.44.02.41-.09.71-.27.96-.05.3-.15.6-.37.76-.05.04-.17.06-.32.08-.09.12-.14.26-.18.41.49-.3.97-.62,1.42-.98.31-.24.65-.61,1.01-.97,1.18-1.61,3.75-2.62,5.65-.44.24.28.44.73.69,1.18.48.22.63.53.59.84.05.05.12.09.18.14-.02-.14-.03-.28-.06-.43-.05-.3-1.63-4.14-2.34-4.32Z"/>
      <path class="cls-1" d="M385.91,122.33c.35.37,1.71.52,2.14.71,1.28.56,2.35,2.2,3.57,1.85.18-.05,1.08-1.02.99-1.71-.19-1.62-3.54-1.68-5.12-2.57-.81-.45-1.9-1.4-2.42-2.14-.11-.15-.22-.41-.32-.7-.25,0-.54.01-.83.02.5.92,1.09,1.83,1.44,2.68.21.52.33,1.59.57,1.86ZM391.11,123.75c.98.62,0,1.58-.71.54.22-.41.48-.35.71-.54ZM388.62,121.61c.71-.33,1.16.09,1.28.43.84,2.38-3.64.66-1.28-.43Z"/>
      <path class="cls-1" d="M385.67,111.52c-.27-.38-.56-.79-.7-1.24-.39-1.29.14-1.01-1.55-1.83-.23-.11-.51-.25-.8-.4-.04,1.33.22,2.67,1.01,3.43.88.85,1.41.47,2.04.04Z"/>
      <path class="cls-1" d="M384.86,104.1c-.08-.13-.11-.24-.13-.35-.49.34-1.08.66-1.23.89-.32.46-.57,1.24-.73,2.12.15.12.28.22.35.25.96.42,3.71-.35,3.93-1.06.13-.41-.14-.91-.61-1.42-.58.2-1.18.28-1.58-.42Z"/>
      <path class="cls-1" d="M422.58,79.31c-1.49-.08-2.97-.1-4.45-.06-.39.15-.78.44-1.12.78.88.66,1.81,1.3,2.59,1.62l2.46-.64c.18-.54.35-1.1.52-1.69Z"/>
      <path class="cls-1" d="M416.04,82.36c.08,0,.14.08.19.16l.46-.12c-.23-.21-.47-.41-.73-.61-.06.28-.06.55,0,.8h.05c.04-.13.06-.23.02-.23Z"/>
      <path class="cls-1" d="M356.41,201.95c.09-.05.19-.08.31-.03-.09-.04-.17-.07-.22-.09-.02.03-.05.06-.07.09-.01.01-.01.02-.02.03Z"/>
      <path class="cls-1" d="M453.53,47.12c-.1-.12-.19-.25-.29-.38.03.12.06.25.1.4.05,0,.11,0,.16.02.01-.01.01-.03.02-.04Z"/>
      <path class="cls-1" d="M449.81,50.42c.21-.17.43-.33.63-.53-.29-.13-.58-.26-.87-.38.17.44.08.77-.18,1.07.14-.06.28-.11.43-.17Z"/>
      <path class="cls-1" d="M459.3,45.02c.49.12,1.14.07,1.14.08.02.05-.67.4-.85.52.12-.02.27-.07.49-.16-.54.22-.61.24-.49.16-.31.06-.35-.05-.48-.14-.34.6-.81.83-1.11,1.26,1.6-.85,3.11-1.75,4.5-2.71l-3.17.83c0,.05,0,.1-.02.15Z"/>
      <path class="cls-1" d="M449.27,52.88c-.43.09-.86.18-1.28.28-.06.05-.19.06-.32.07-.11.03-.22.05-.34.07-.01.05.03.13.16.27.21.21.27.32.25.37.54-.29,1.05-.64,1.52-1.05Z"/>
      <path class="cls-1" d="M356.38,201.96s0,0,0,.01c0-.01.01-.02.02-.03-.01,0-.02.01-.03.02Z"/>
      <path class="cls-1" d="M450.97,47.06l-1.92.5c.78.01,1.49-.11,1.92-.5Z"/>
      <path class="cls-1" d="M446.71,51.22c.07.09.14.18.22.27.01,0,.04-.01.05-.02-.09-.09-.16-.19-.2-.33-.03.02-.04.05-.06.08Z"/>
      <path class="cls-1" d="M520.48,32.32c.43,1.26,1.54,1.86,2.75,2.2.08-2.02,1.38-3.39,3.97-3.62.06,0,.11,0,.18,0-.39-.38-.82-.7-1.36-.86-1.57-.46-6.05.81-5.54,2.29Z"/>
      <path class="cls-1" d="M447.17,48.83c-.12-.02-.25-.03-.37-.04,0,.11.09.23.21.34.05-.11.11-.2.16-.3Z"/>
      <path class="cls-1" d="M340.62,199.5c.85.67,1.27,1.69,1.99,2.42,1.35,1.35,3.42,2.53,5.27,3.85,3.51,2.52,7.61,5.17,11.65,7.54l24.42-59.66c-1.38,1.06-3.06,1.58-4.47.93-5.1-2.34-.28-10.73,4.62-8.91-.21-.71-.42-1.41-.62-2.09-.72-2.45-.76-4.55-2.85-5.14-.61-.17-1.2-.01-1.85-.14-2.17-.43-4.69-1.51-6.27-1.71-1.15-.15-2.41-.15-3.65-.18.4,1.37-1.24,3.09-2.62,2.37-.87-.45-1.13-1.55-.88-2.43-.64.5-1.33.96-2.1,1.31-.11.02-.23.02-.34.03l-9.44,23.08c-.48,1.48-.96,2.95-1.47,4.35-.45,1.26-.59,2.54-.99,3.85-.39,1.25-1.97,3.38-1.85,4.42.21,1.85,3.21,1.74,2.28,4.42-.1.27-1.19,1.33-1.86,1.57-.78.28-1.84-.06-2.71.43-.82.46-1.48,2.52-1.99,3.57-1.19,2.42-1.83,3.96-3.02,5.77l-3.41,8.33c.09.3.19.56.3.74.35.53,1.14.72,1.85,1.29ZM381.2,140.55c-.38,1.1-1.24,1.66-2.24.7-.31-1.31,1.76-2.4,2.24-.7ZM374.23,155.17c-.1.3-.09.59-.19.88-.52.52-1.12.35-1.74-.1-.23-.95,1.07-2.05,1.94-.78ZM372.1,143.72c.17-.17.42-.29.57,0,.23.45-.97.4-.57,0ZM371.18,171.28c.57-1.09,1.87-.09,1.81.68-.36.66-.79.76-1.21.86-.6-.47-.7-.99-.59-1.53ZM369.97,166.97c1.17-.63,1.18,1.26.28,1.28-.77.02-.91-.95-.28-1.28ZM363.98,145.15c.52-.54.28,1.11-.14.57-.11-.14.1-.53.14-.57ZM362.13,201.49c1.75-.47,1.38,2.22,0,2-1.04-.17-1.11-1.71,0-2ZM358.85,165.97c.83-.42,1.66.13,1.71.86.16,2.58-3.87.25-1.71-.86ZM356.72,201.35c.93-.05.31,1.08.14,1.14-.02.01-.35-.31-.48-.51-.17.19-.14.08,0-.01-.06-.12-.06-.19.13-.13.14-.19.3-.49.22-.48ZM356.01,199.78c.93-.58.25,1.33-.29.43-.13-.21.2-.38.29-.43ZM354.44,201.92c-.02-.12-.27.68-.29,0,0,.47.06,1.27-.43,1.57.25-.15-.14-.9-.14-.57,0-.42.72-1.78.85-1ZM349.14,193.78c-1.87-.53,1.1-1.72,0,0h0ZM347.05,183.73c.62.32.36.73.12,1.14-.32-.35-.66-.71-.12-1.14Z"/>
      <path class="cls-1" d="M446.03,49.75c.26.05.49.14.7.28.01-.08.02-.16.04-.24-.27-.15-.54-.22-.74-.04Z"/>
      <path class="cls-1" d="M387.06,141.01c-.18.61.35,1.77.92,2.81l1.57-3.83c-.93.15-2.28.34-2.48,1.01Z"/>
      <path class="cls-1" d="M484.6,50.87c.08-.28.15-.56.11-.73-.08-.3-.17-.37-.25-.38.03.37.08.73.15,1.11Z"/>
      <path class="cls-1" d="M484.44,49.69c.42-.32.28-.72-.04-1.21,0,.4,0,.8.04,1.21Z"/>
      <path class="cls-1" d="M485.43,51.76c-.07-.07-.39,0-.63.02.23.97.58,1.98,1.07,3.03.03.06.25-.06.54-.24-.39-1.25-.65-2.51-.99-2.82Z"/>
      <path class="cls-1" d="M477.78,46.88c-.12-.04-.24-.06-.36-.1-.2.04-.39.07-.58.11.34.37.73.66,1.09.73.1.01.2,0,.3-.02-.15-.24-.3-.48-.45-.72Z"/>
      <path class="cls-1" d="M589.67,74.98c-1.45-4.14,2.1-8.59,6.3-8.64,1.91-.02,3.71.94,5.01,2.34L630.49,0l-73.34,19.22c.23.18.41.39.46.65.02.12.03.23.02.34-.06,1.19-2,1.16-2.85,1.17-.75.73-.67,1.26-1.16,1.67-1.3,1.06-3.68-.3-4.36-1.76l-21.3,5.58c.48.37.97.73,1.5,1.01,1.4.75,4.35,1.2,3.92,3.47-.18.97-1.2,1.68-2.24,1.86.01.04.03.07.04.1.38,1.42.03,2.57-.69,3.4,1.51.52,3.3.29,4.6,1.35.42.34.78-1.1.97-2-1.28-.04-2.1-1.98-.93-3.05,1-.9,2.53-.04,2.76,1.46,2.35-.96,4.38-.42,6.46,1.19,1.01.78,1.79,1.42,2.13,2.68.33,1.21-.06,2.48,1.15,3.35.46.33,5,2.35,5.25,2.25,2.08-.84,3.86-.53,5.92.03.77.21,1.32.47,1.68.73l25.96-6.8-44.48,103.53s.02.06.04.09c-.04.06-.09.09-.13.12l-16.57,38.57c.11.03.21.04.32.08,1.76.69,2.21,3.55.85,4.63-.29.23-1.58.46-2.35.34-.27-.04-.56-.15-.85-.31l-14.84,34.53h-54.45l-10.39,25.5h81.63s71.3-165.96,71.3-165.96c-2.9.06-5.9-1.28-6.87-4.04ZM604.24,56.26c-.49.49-1.57-.86-1.62-.72.2-.66,2.09.25,1.62.72ZM545.46,25.48c-.21-.21.16-.51.18-.54.71-.9.5,1.22-.18.54ZM551.03,33.33c-.12.15-.42.11-.66-.08-.24-.19-.34-.47-.21-.62.12-.15.42-.12.66.08.24.2.34.48.22.63ZM547.62,23.31c.35-.51,5.02.28,4.67,1.44-.32,1.11-5.2-.67-4.67-1.44ZM552.37,28.53c-.18-.15-.21-.41-.06-.59.15-.19.41-.21.59-.07.18.15.21.41.06.59s-.41.21-.59.06ZM553.78,38.9c-.15.18-.46.17-.7-.02-.24-.2-.32-.5-.18-.68.15-.18.46-.17.71.03.24.19.32.5.17.68ZM554.27,35.14c-.19.24-.57.26-.84.04-.27-.22-.34-.59-.14-.84.19-.24.58-.26.85-.04.27.22.33.59.13.83ZM564.76,23.24c.17-.21.51-.22.75-.03.24.19.3.53.13.74-.17.21-.51.23-.75.03-.24-.19-.3-.53-.13-.74ZM557.42,35.41c.17.27.97.48.67.8-.49.51-1.53-.18-.67-.8ZM557.16,34.48c.13-.15.39-.13.61.04.21.17.28.43.16.58-.12.15-.39.14-.6-.03-.21-.17-.29-.43-.17-.58ZM558.53,38.43c-.62,0-1.13-.22-1.13-.49s.5-.49,1.13-.49,1.12.22,1.13.49c0,.27-.51.49-1.13.49ZM562.51,41.1c-.45-.21-.93-.35-.53-.95.42-.06.95.51.53.95ZM564.12,35.48c-.1.12-.28.14-.39.04-.12-.1-.14-.27-.04-.39.1-.12.27-.14.39-.05.13.1.14.28.04.4ZM565.47,39.65c-.15.18-.41.21-.59.06-.18-.15-.21-.42-.06-.6.15-.18.42-.21.59-.06.18.14.21.41.06.59ZM567.48,36.03c-.24.3-.68.35-.99.1-.3-.24-.35-.68-.1-.99.24-.3.68-.35.99-.11.3.24.35.69.1.99ZM567.8,32.59c-1.17.17-2.02-.85-3.14-1.49-.44-.13.27.91-.3.8-1.23.54-1.97-.89-2.93-1.32-1.04-.47-1.82.21-2.78.01-.98,2.12-4.47,1.36-2.95-.64,1.2-1.59,3.58.23,4.86-.43.26-1.78,1.22-3.88,3.12-4.09,2.1-.23,3.4,1.81,4.41,3.57.02.25-.18.5-.43.53,1.64.96,1.62,2.26.14,3.06ZM568.74,26.6c-.39,0-.71-.18-.71-.41,0-.23.31-.43.69-.43.39,0,.71.18.71.41,0,.24-.31.43-.7.44ZM570.77,33.97c-.1.13-.28.14-.4.05-.12-.1-.14-.28-.04-.4.1-.12.28-.14.4-.04.12.1.14.27.04.39ZM453.28,234.3c-.73,1.52-3.91-.82-1.56-1.57.9-.29,2.11.45,1.56,1.57ZM458.12,237.15c-.47,1.77-3.76-.64-2.14-1.43.91-.44,2.41.41,2.14,1.43ZM465.39,236.66c-.45-.3-.63-.61-.25-.99.11.14.2.06.29-.03.45.29.34.63-.04,1.02ZM469.6,234.03c1.26.01,1.82.86,2.09,1.95-1.6,2.83-4.58-.62-2.09-1.95ZM480.77,221.6c.06-.06-.63.11-.57-.28.08-.58.68.17.57.28ZM492.69,225.47c-.77.78-2.44-.1-2.19-1.51,1.49-2.12,3.17.53,2.19,1.51ZM519.73,232.13c-2.27,2.18-7.06-.9-6.37-4.1.54-2.49,2.7-3.5,5.13-2.14,2.07,1.16,3.35,4.22,1.24,6.24ZM525.26,216.18c-.38-.2-.34-.44-.51-.66.26-.25.56-.14.89.19l-.38.47ZM540.44,168.78c-1.36,2.93-6.77.33-4.47-2.56.98-1.24,2.11-1.1,3.47-.08.97.72,1.39,1.81,1,2.64ZM541.3,155.28c-.2.2-.85-.01-.43-.43.32-.32.63.23.43.43ZM565.05,123.7c.17.03-.13-1.09.04-1.38.17-.31.72-.39,1-.43.53-.07,1.05.5.99,1-.11.97-1.4,1.37-2.02.81ZM573.82,106.23c.18-.06.37-.12.54-.34.41.25.59.52.66.8-.39.3-1.14.16-1.2-.45ZM581.84,88.02c-1.78,3.93-5.34-3.26-1.14-2.04,1.44.42,1.45,1.35,1.14,2.04ZM575.3,68.14c-.78-2.05-.23-5.04,3.23-5.58,1.14-.18,2.4-.06,3.24.54,5.72,4.14-3.87,11.84-6.47,5.04ZM583.72,82.57c.82-.18,2.05.5,2.16,1.47-.56,2.84-4.73.62-2.16-1.47ZM590.94,48.88c.19,1.11-1.92-.23-1.8-.54.08-.21,1.72.07,1.8.54Z"/>
      <path class="cls-1" d="M487.82,53.74c.63-.08,1.63.55,2.16.82,1.25.62,2.44,1.39,3.6,2.16-.03-1.24.13-2.66-.08-3.52-.38-1.62-.88-6.17-2.52-5.94-.96.13-.32,1.37-1.44,1.8-.9.34-1.4-.72-2.16-.18-.94.67-.32,2.82-.18,3.6.07.41.15.9.24,1.43.16-.09.29-.16.36-.16Z"/>
      <path class="cls-1" d="M546.74,45.94c-2.11.72-4.15,1.7-6.32,2.23-3.59.87-6.26-.45-7.97-3.71-.14-.06-.27-.09-.41-.13-.16.18-.3.37-.41.58-.29.58.01.98-.36,1.27-.27.2-.77-.13-1.26,0-.58.15-2.31,1.27-3.41,1.08-.32-.06-.95-.5-1.57-1.06,0,.21-.06.43-.27.68-1.13,1.38-2.56-.34-1.62-1.28.28-.27.65-.34,1-.28-.47-.53-.86-1.08-.96-1.48-.33-1.29-.26-2.44.1-3.4-.51-.3-1.24-.74-1.86-1.07-.01.11-.01.22-.04.34-.06.34-1.09,1.88-1.8,2.16-.16.06-1.14,0-1.26.18-.51.83.27,1.87.18,2.52-.02.14-.07.32-.12.49.41.04.81.24,1.13.67,1.32,1.77-.33,3.21-2.14,2.38-.14-.06-.25-.14-.36-.2-.57.97-1.15,1.82-1.39,2.07-.12.12-.63.04-.72.18-.13.19-.86,3.14-1.8,1.8-.67-.97.45-1.13.54-1.44.19-.63.02-1.83.36-3.06.54-1.96,2-2.87,1.62-4.14,0-.01-.02-.03-.02-.04-1.02,1.09-2.35.91-3.26.21-.3,1.61-.78,4.54-.86,5.23-.16,1.43-.11,2.64-.18,3.59-.09,1.3,0,2.41.14,3.46.57-.21,1.21.13,1.51.8-.25.22-.07.39-.23.61-.03.04-.06.06-.09.09l.98-.26c-.85-2.32-.03-5.13,3.79-5.41,1.9-.14,3.87,1.24,4.37,3.27l34.96-9.16c-1.36-.22-2.79-.59-3.69-1.34-.71-.6-5.47,1.29-6.32,1.59Z"/>
      <path class="cls-1" d="M456.99,55.57c.37-.05.63-.03.83.05-.09-.57-.11-1.18-.14-1.78-.24-.05-.48-.16-.75-.4-.08-.36,0-.63.15-.84-.67-.16-1.34-.54-1.98-.95-1.28.27-2.59.54-3.92.82-1.23,1.39-2.67,2.29-4.24,2.86.1.23.26.08-.35.21-.58.12-.9,1.37-.72,1.62.32.41,1.34.74,1.08.9-.79.49-.79-1.18-2.16-.9-.15.03-1.31.62-1.26,1.26.05.61.61-.38.54.36-.09.91-.15-.16-.36,0-.13.09.84,1.75-.18.35-.32-.43-1.06-2.52-2.16-.72.43-.71.91,1.7.72,1.98-.43.63-1.1-.43-.9-.9.09-.21.16-.31.21-.34-.05-.05-.12-.15-.21-.37-.04-.11.09-.86,0-.9-1.06-.51-1.98,1.63-1.97,0,0-1.25-3.29.76-3.77,1.25-.22.23.16.75-.72,1.18.53-.32-1.64-.25-2.34.09-.72.35-1.45,1.21-1.85,1.74.22.12.43.25.65.37.19-.85.44-1.75,1.2-1.03.25.24.3.97.28,1.88.91.53,1.83,1.08,2.74,1.64.18-.18.33-.34.39-.46-.03.07.06-1.79.5-2.12-.01-.13,0-.21.04-.22-.01,0,.02.17,0,.18-.01,0-.02.03-.04.04.05.55.52,1.93.7,1.77-.13.36-.49.8-.91,1.21,1.02.64,2.05,1.29,3.06,1.97-.02-.27-.04-.53.07-.68.11-.16.44.24.54.18.52-.31.66-1.92.9-2.16.52-.53,1.26-.35,2.16-.72.66-.28.99-.93,1.26-.9.66.08.71.94.9,1.08.38.29,1.12.14,1.44.36,1.2.8,2.18,3.81,1.26,5.58-.49.94-1.61,1.35-2.47,1.79.48.41.96.81,1.43,1.23.48-.5.38.33.14.03.04.05.17.15.34.29.38-.47.81-.9,1.33-1.23.34-.2.14-1.57.57-1.96.47-.42,1.21-.33,1.8-.31,1.07.04,3.02.34,3.69,1.31-.03.41-.09.83-.14,1.25l1.03-.27c-.08-.12-.12-.24-.11-.37.35-.7,1.14-.47,1.45.02l4.32-1.13c-.32,0-.64-.08-.93-.25-2.58-1.54-.62-5.59,2.31-4.26,2.41,1.1,1.38,3.36-.19,4.19l4.52-1.19c-1.69-1.02-1.93-3.35-2.77-4.25-1.53-1.64-5.13-1.02-3.03-3.84-.24-.8-.95-1.54-1.17-2.34.96.88,2.44,2.05,3.17,3.18.54-.09,1.7,1.15.47.59.05.01-.11-.11-.27-.24.32.65.38,1.24.91,1.86.36.41,3.8,3.37,4.03,3.29.9-.33,1.8-.57,2.73-.66-.17-.18-.36-.39-.66-.67-.38-.36-1.04-.54-1.39-.87-.84-.79-1.11-2.11-1.81-2.96-.69-.84-1.85-1.5-2.15-2.31-.36-.93.35-1.59.25-2.33-.04-.35-.97-1.19-.76-1.44.34-.4,1.21.26,1.5,0,.38-.33-.78-.8-.25-1.13.2-.13,1,.34,1.1.33.44-.04,1.11-1.17,1.13-1.71-.05-.1-.1-.2-.15-.31-.12-.18-.28-.42-.45-.68-.76-.1-1.42-.31-1.82-.63-.35-.28-.62-.77-.92-1.22-.39-.11-.74-.38-.94-.81,0-.03.01-.04.02-.08-.17-.09-.36-.16-.58-.18-.35-.04-1.09.14-1.92.36.04.21,0,.43-.19.62-.17-.01-.33-.04-.48-.09-.2.84-.94,1.46-1.74,1.74.17.17.3.4.3.72-.09.13-.19.2-.28.3.72,1.48,1.64,2.95.91,4.58-.76-.25-1.19-.75-1.45-1.38-.42.94-1.82,1.87-2.27.29-.31-1.08.35-1.32,1.14-1.43ZM437.26,65.98c-.56-.56.23-1.71.36-1.8,1.01-.71.5,2.66-.36,1.8ZM437.79,59.68c-.92,1.38-.58,1.37-1.19,2.07-.16.33-.45.62-.77.83-.26.33-.51.58-.56.52-.05-.05-.07-.13-.06-.23-.35.1-.68.09-.89-.09-.94-.82.7-2.49,1.81-1.85.02-.06.04-.14.04-.18-.01-.13-.64-.87-.08-1.37-.17.3,2.32.01,2.05-.25.44.43-.13.2-.36.54ZM453.61,54.28c.36-.71,1.19.67.54.9-.35.13-.77-.45-.54-.9ZM454.62,59.39c.13.59-.08,1.09-.41,1.42.09.07.14.18.07.32-.07.14-.52.16-.68.05-.63.18-1.38-.08-1.82-1.02.14-1.43,1.53-2.38,2.85-.77ZM446.56,59.45c.66-1.68,2.53-.61,2.36.52-.76,1.04-2.2.58-2.36-.52ZM454.51,71.2c-.84-.45-.31-2.77.18-3.06,1.62-.98,1.87,4.16-.18,3.06ZM457.03,61.48c-.33,0,.04-.24,0,0h0ZM453.85,66.37c-1.04.72-2.48.98-3.6.24-3.25-2.12-.36-6.54,2.94-4.94,1.33.63,1.9,1.43,2,2.22.12-.04.24-.09.37-.11,4.07,1.81-.46,5.07-1.71,2.6Z"/>
      <path class="cls-1" d="M474.04,48.67c.77-.52,1.44-1.13,1.62-1.54-1.23.28-2.27.69-2.57,1.74-.04.14-.06.26-.07.37.21-.1.43-.21.65-.34-.16-.18-.29-.34-.28-.38.04-.19.34-.08.65.15Z"/>
      <path class="cls-1" d="M368.91,126.57c.56,1.58.47,3.33-.11,5.01.96-.25,1.73-.51,2.02-.69,1.56-.94,4.51-5.19,4.28-7.13-.05-.38-.25-.37-.57-1-.54-1.04-1.01-1.97-1.49-2.88-.08-.02-.17-.03-.26-.06-.81-.32-.57-.46-.07-.55-.35-.66-.73-1.32-1.14-2.01-.28.46-.56.92-.83,1.38l-2.64,6.44c.22.42.58.83.81,1.49Z"/>
      <path class="cls-1" d="M511.66,57.48s0,.02,0,.03l.06-.02s-.04,0-.06-.01Z"/>
      <path class="cls-1" d="M390.19,73.4c.35.16.97-.05,1.28,0,.32.05.62.14.94.22-.06-.23-.12-.46-.19-.69-.78-.28-1.62-.5-2.45-.8l-.19.47c.22.29.32.67.62.8Z"/>
      <path class="cls-1" d="M509.15,37.35c-.39.28-1.14,1.29-1.08,1.62.07.4,1.08,1.18,1.62,1.08.81-.15-.18-.73.72-.72.37,0,.44.39.9.54.18.06.54.07.98.05.65-.48,1.49-.55,2.24-.3.46-.1.82-.2.92-.29.18-.18-.06-.99,0-1.26.01-.06.04-.11.06-.17-1.19-.62-2.39-1.27-3.73-1.34-.07,0-.14,0-.21,0-.02.02-.05.05-.07.07-.08.14.13.42.18.36-.41.46-1.3,1.1-1.62,1.08.05,0,.28-1.55-.9-.72Z"/>
      <path class="cls-1" d="M501.09,60.05c-.6-.34-.45-.71-.72-1.27,1.71-2.52,2.69.14,2.07,1.15l7.86-2.06c.49-2.32.15-5.6.29-8.09.09-1.61.65-3.62,0-4.86-.34-.64-1.62-1-2.34-1.62-1.23-1.05-2.2-3.44-4.31-3.6-1.77-.14-3.91.82-5.04,1.62-2.04,1.45-3.07,3.86-3.51,6.75.65.68.49,1.59-.2,1.95-.12,1.91-.05,3.96.12,6.06.06.76.11,1.51.16,2.23.71.88,1.14,1.93,1.46,3.06l4.5-1.18c-.11-.04-.21-.08-.33-.15ZM508.17,46.93c.62.26,1.11.51.73,1.37-1.52,3.43-4.13-2.81-.73-1.37ZM504.64,44.99c-.14.74-1.52,1.35-1.84.41-.59-1.74,2.12-2,1.84-.41Z"/>
    </g>
  </g>
</svg>